<svg id="Example_3" data-name="Example #3" xmlns="http://www.w3.org/2000/svg" xmlns:xlink="http://www.w3.org/1999/xlink" viewBox="0 0 100 100"><defs><style>.cls-1{fill:url(#linear-gradient);}.cls-2{fill:url(#linear-gradient-2);}</style><linearGradient id="linear-gradient" x1="10.77" y1="39.24" x2="89.23" y2="39.24" gradientUnits="userSpaceOnUse"><stop offset="0.01" stop-color="aqua"/><stop offset="0.48" stop-color="#2b9fda"/><stop offset="1" stop-color="#009245"/></linearGradient><linearGradient id="linear-gradient-2" x1="10.75" y1="59.17" x2="89.25" y2="59.17" xlink:href="#linear-gradient"/></defs><path class="cls-1" d="M89.23,31.22q-.08-4.17-.13-8.34V21.47a.35.35,0,0,0-.53-.29l-38.13.25a.23.23,0,0,0-.11,0l-.95,0h0l-37.91-.25a.35.35,0,0,0-.53.29v1.41q-.06,4.17-.13,8.34a.32.32,0,0,0,0,.14l0,0c0,.22.05.43.06.64A202.09,202.09,0,0,0,49.56,57.11a.55.55,0,0,0,.88,0A202.09,202.09,0,0,0,89.16,32c0-.21,0-.42.06-.64l0,0A.32.32,0,0,0,89.23,31.22ZM50,56.56A201.47,201.47,0,0,1,13.6,33.34a.25.25,0,0,0,0-.17l-.59-6.09,1.59,4.82a.34.34,0,0,0,.39.24A30.09,30.09,0,0,0,16.29,35c.19.38.71.1.64-.27-.17-.87-.33-1.75-.49-2.63a35.82,35.82,0,0,0,2.32,4.74.34.34,0,0,0,.63-.26l-.72-4.49a53.14,53.14,0,0,0,2.75,6.69c.19.38.7.09.64-.27q-.64-3.81-1.27-7.62l2.43,9.46c.11.44.74.24.67-.19q-.86-5.64-1.7-11.29Q24.11,35.54,26,42.21c.1.36.73.31.68-.09q-.55-4.23-1.12-8.46a75,75,0,0,0,3,8.7.35.35,0,0,0,.68-.18c-.32-2-.63-4.11-.94-6.16a70.67,70.67,0,0,0,3.38,9.07c.17.38.7.09.63-.27q-1.53-8-2.26-16.07,2,9.26,4,18.52a.35.35,0,0,0,.68-.1l-.72-8.41a93.78,93.78,0,0,0,2.4,9.14c.12.35.72.31.69-.1L35.85,30.28q1.55,8.4,3.1,16.8a.35.35,0,0,0,.68-.09q-.52-8.13-1.07-16.25l3.81,21.41c.07.39.69.3.68-.09l-.42-14a112.38,112.38,0,0,0,3.42,15.76c.11.36.72.31.68-.1q-.81-9.06-1-18.17a152.47,152.47,0,0,0,3.53,20.11c.11.44.73.24.67-.19a164.83,164.83,0,0,1-1.65-22.19l3.48,18.5a.35.35,0,0,0,.68-.09l-.72-11.74c.34,2,.71,4.08,1.13,6.1a.35.35,0,0,0,.69-.09c-.11-3.05-.23-6.1-.34-9.14a82.86,82.86,0,0,0,2.61,10.83.35.35,0,0,0,.68-.09q-.18-8.55-.35-17.09L58.4,43.87c.06.39.69.3.68-.09q-.07-3.6-.17-7.21a74.34,74.34,0,0,0,1.82,8.29.35.35,0,0,0,.69-.1l-.06-9.95a72.81,72.81,0,0,0,1.47,7.43.35.35,0,0,0,.69-.09c0-3-.07-6.06-.11-9.09q.68,4.17,1.33,8.36c.07.4.67.28.69-.1l.31-8.38a64,64,0,0,0,1.77,8.94.35.35,0,0,0,.68-.1c0-3.55,0-7.11-.08-10.67l2.16,10.06a.35.35,0,0,0,.68-.09c0-3.47-.1-6.93-.16-10.4l1.86,8.75a.35.35,0,0,0,.68-.09c0-3.05,0-6.1,0-9.16.38,2,.77,4,1.16,6,.08.4.66.28.68-.1l.36-5.54c.56,1.84,1.13,3.69,1.69,5.54a.35.35,0,0,0,.69-.09l.25-7.61,1.26,6c.09.4.67.28.69-.1.07-1.51.15-3,.22-4.55.14.93.28,1.86.41,2.79.06.41.66.27.69-.09l.39-4.59.61,5a.35.35,0,0,0,.7,0L83.62,29c.06.93.11,1.87.17,2.8,0,.37.61.5.69.09.26-1.42.53-2.84.79-4.26.14.94.27,1.87.4,2.8a.35.35,0,0,0,.67,0c.11-.64.22-1.27.32-1.9l.16,1.27c.06.44.75.44.7,0l-.46-3.67c0-.35-.62-.52-.69-.09-.11.68-.22,1.36-.34,2l-.38-2.67c-.05-.34-.61-.32-.67,0L84.32,29l-.24-3.76a.35.35,0,0,0-.69,0c-.2,1.61-.4,3.22-.59,4.83l-.68-5.45a.35.35,0,0,0-.7,0L81,29.48c-.17-1.12-.33-2.23-.49-3.35-.06-.4-.67-.27-.69.1-.09,1.8-.18,3.6-.26,5.4q-.66-3.11-1.31-6.21c-.08-.4-.67-.29-.69.09L77.3,33.9c-.55-1.79-1.09-3.58-1.64-5.37a.35.35,0,0,0-.69.1l-.3,4.75c-.44-2.3-.89-4.59-1.33-6.89-.08-.39-.69-.29-.69.09q0,4.74,0,9.46c-.64-3-1.27-6-1.91-9a.35.35,0,0,0-.69.09q.09,5.22.16,10.44-1.07-4.95-2.12-9.91a.35.35,0,0,0-.69.09q0,5.55.08,11.1A65.51,65.51,0,0,1,66,27.06a.35.35,0,0,0-.69,0c-.14,3.57-.27,7.13-.4,10.7-.5-3.18-1-6.35-1.51-9.52-.07-.4-.69-.3-.69.09l.12,10.55a72,72,0,0,1-1.47-13.34.35.35,0,0,0-.69,0L60.71,42a73.33,73.33,0,0,1-2-15.62.35.35,0,0,0-.7,0l.3,12.59Q57.16,32.27,56,25.61c-.06-.39-.69-.3-.68.09L55.75,45A81.68,81.68,0,0,1,52.9,28.31c0-.45-.71-.45-.69,0q.24,6.56.47,13.1a138.66,138.66,0,0,1-1.85-16.14c0-.45-.72-.45-.69,0q.63,10.44,1.28,20.88-1.58-8.34-3.13-16.66c-.08-.39-.68-.29-.69.1a167.26,167.26,0,0,0,.82,19,150.28,150.28,0,0,1-2.7-22.28.35.35,0,0,0-.7,0q-.2,11.88.71,23.71a111.14,111.14,0,0,1-3.41-22.52c0-.44-.71-.45-.7,0q.3,9.93.59,19.84L38.13,24.38a.35.35,0,0,0-.68.09q.54,8.3,1.1,16.59Q37,32.46,35.38,23.87a.35.35,0,0,0-.69.1q.77,10.34,1.52,20.67a91.59,91.59,0,0,1-3-15.82L33,26c0-.45-.73-.45-.7,0,.07.94.15,1.89.25,2.84q.54,6.49,1.1,13-2-9.09-3.95-18.18a.35.35,0,0,0-.68.1,162.12,162.12,0,0,0,2.1,18.12,71.07,71.07,0,0,1-4.44-16.8c-.07-.45-.73-.25-.67.18q1.05,7,2.11,13.9a73.12,73.12,0,0,1-3.83-15.71c-.06-.44-.75-.45-.7,0l1.86,14.1-4-14a.35.35,0,0,0-.67.19L22.2,33.6q-1.36-5.34-2.74-10.67c-.12-.44-.75-.25-.68.18q1.09,6.5,2.17,13A51.57,51.57,0,0,1,17.3,23.5c-.08-.45-.74-.26-.68.18l1.77,11a36.46,36.46,0,0,1-3-8.41c-.18-1-.37-2-.56-3-.08-.44-.73-.25-.67.19.14,1,.34,2,.56,3,.34,1.84.69,3.69,1,5.53-.28-.71-.53-1.44-.75-2.17l-1.32-7a.35.35,0,0,0-.68.09c.06.88.17,1.74.3,2.6l-.52-1.58c-.11-.35-.72-.32-.68.09l.35,3.64a.36.36,0,0,0-.58.26,11.38,11.38,0,0,0,.83,4.67L11.3,31.5a.29.29,0,0,0,.17-.28c0-2.9.09-5.81.14-8.71,0,0,0,0,0-.05v-.58l38,.25h0l.92,0a.33.33,0,0,0,.15,0l37.76-.25v.58s0,0,0,.05c0,2.9.1,5.81.14,8.71a.29.29,0,0,0,.17.28A201.8,201.8,0,0,1,50,56.56Z"/><path class="cls-2" d="M89.25,39.81a.35.35,0,0,0-.62-.21.36.36,0,0,0-.19,0Q71.85,50.91,54.58,61.15L50,61.32l-4.58-.17Q28.17,50.92,11.56,39.65a.36.36,0,0,0-.19,0,.35.35,0,0,0-.62.21q.16,17.91.32,35.81a.31.31,0,0,0-.05.17v1a.29.29,0,0,0,.15.27.32.32,0,0,0,.32.44q10.8-.21,21.62-.11c4.2,0,8.4.16,12.61.21.16.35.32.7.5,1s.71.1.63-.27l-.16-.75c2.54,0,5.08,0,7.61,0q10.86-.26,21.72-.23,6.26,0,12.49.14a.32.32,0,0,0,.32-.44.29.29,0,0,0,.15-.27v-1a.31.31,0,0,0,0-.17Q89.1,57.71,89.25,39.81ZM11.71,76a.36.36,0,0,0,.06-.19l0-2.62c.57,1.19,1.14,2.37,1.7,3.55a8.53,8.53,0,0,0-1.73.12Zm2.34.73a.33.33,0,0,0,0-.24l-.73-3.27c.44.9.88,1.79,1.33,2.69.19.38.68.08.63-.27a53,53,0,0,0-1.3-6.4l2.81,6c.17.36.75.11.64-.27l-.75-2.52a38.29,38.29,0,0,0,2.22,3.46.35.35,0,0,0,.64-.27c-.81-3.69-1.74-7.36-2.76-11q2,4.73,4.32,9.31c.18.36.74.11.64-.26L18.27,61.15q2.6,7.37,5.49,14.63c.17.41.84.24.67-.19A198,198,0,0,1,16.36,49.3l9,24.51a.35.35,0,0,0,.67-.19q-1.32-5.06-2.66-10.11a106.73,106.73,0,0,0,4.49,9.87c.18.35.74.11.64-.27q-1.14-4.22-2.26-8.41c1.14,2.94,2.39,5.85,3.76,8.7.18.37.73.1.64-.27q-1-4-2-7.93a72.55,72.55,0,0,0,4.73,9.61c.21.36.69.1.64-.27-.33-2.24-.72-4.46-1.14-6.68a63.87,63.87,0,0,0,2.85,6.33c.17.33.64.14.64-.19.26.61.53,1.22.82,1.82.17.37.73.11.63-.27l-2.23-8.66a85.2,85.2,0,0,0,3.68,7.72.35.35,0,0,0,.64-.27c-.73-2.53-1.46-5.07-2.18-7.6L41,75.14c.16.4.79.25.67-.19l-.84-3.29Q42,74.32,43.22,76.9c-3.3-.06-6.59-.13-9.88-.16C31.91,76.73,19.35,76.62,14.05,76.71Zm30,.21-1.23-6.19c.75,2.11,1.59,4.18,2.54,6.21Zm2.47,0c-.65-3-1.31-6-2-9l3.24,9Zm8.18,0c-2.05,0-4.09,0-6.13,0-.35-1.5-.69-3-1-4.52a38.14,38.14,0,0,0,1.9,3.71.35.35,0,0,0,.64-.27l-.84-5a40.14,40.14,0,0,0,2.06,4.6c.2.36.71.1.64-.27l-1.17-6.14a31,31,0,0,0,3.08,5.46.35.35,0,0,0,.64-.27q-.57-3.48-1.12-7A63.13,63.13,0,0,0,56.69,75c.19.37.7.1.63-.27-.2-1.1-.41-2.2-.62-3.31a30.68,30.68,0,0,0,2,3.87c.22.36.68.1.63-.27-.19-1.47-.39-2.93-.59-4.4a33.07,33.07,0,0,0,2.25,5c.2.37.69.1.63-.27L61,71.52c.5,1.52,1.06,3,1.7,4.49.13.31.68.16.65-.17L63.09,73c.19.56.39,1.13.61,1.69a.35.35,0,0,0,.69-.1l-.27-11.49,3,9.9a.35.35,0,0,0,.67-.18c-.36-2.39-.72-4.77-1.09-7.16l1.56,6.36a.35.35,0,0,0,.68-.09,90.11,90.11,0,0,0-.74-11l4.2,12.17c.12.35.73.32.68-.09L71.76,61.26,75.93,72.8c.12.34.74.32.68-.1l-1-8.18a56.7,56.7,0,0,0,5.07,12.1.27.27,0,0,0,.15.13c-1.44,0-2.89,0-4.34,0Q65.58,76.68,54.71,76.93Zm33.52-1.14a.36.36,0,0,0,.06.19v.88c-2.41,0-4.81-.08-7.22-.11a.3.3,0,0,0,.21-.31q-.6-6.15-1.7-12.22l3.18,11c.12.44.74.25.67-.19L81,60.64l2.34,9.83a.35.35,0,0,0,.69-.09c-.13-3.21-.38-6.42-.75-9.6.51,1.7,1.06,3.38,1.68,5a.35.35,0,0,0,.68-.19L83.84,53.73c.64,1.76,1.28,3.53,1.91,5.29.13.34.74.33.69-.09l-.69-5.63.84,3.45c.09.37.72.31.69-.09-.13-1.61-.25-3.22-.38-4.83a.35.35,0,0,0,.6-.32c-.3-1.2-.6-2.4-.91-3.59-.09-.37-.71-.31-.68.09.11,1.46.23,2.92.34,4.38-.41-1.67-.81-3.34-1.22-5-.09-.37-.73-.3-.68.09l1,8.46q-1-2.84-2-5.67a.35.35,0,0,0-.67.19q.86,5.82,1.72,11.64a80.51,80.51,0,0,1-2.17-8.38c-.15-.86-.31-1.72-.47-2.57-.09-.44-.75-.25-.68.18q.22,1.29.48,2.55a122.35,122.35,0,0,1,1.55,12.65q-2-8.23-3.94-16.47c-.1-.45-.74-.25-.67.18q1.62,9.42,3.22,18.83l-4.32-15a.35.35,0,0,0-.67.18A147.54,147.54,0,0,1,80.4,74.7a56.08,56.08,0,0,1-6.12-20.06c-.06-.44-.75-.45-.7,0q1,7.49,1.94,15Q73.47,64,71.42,58.28c-.12-.34-.73-.32-.68.1q.65,5.77,1.3,11.56-2.19-6.36-4.39-12.73a.35.35,0,0,0-.67.19,91.48,91.48,0,0,1,1.18,11.31L65.52,57.92c-.11-.45-.74-.25-.67.18q.77,5.06,1.54,10.11L64.05,60.5a.35.35,0,0,0-.69.09l.28,11.88a34.28,34.28,0,0,1-1-3.83c-.22-2.1-.43-4.2-.65-6.3,0-.44-.7-.46-.7,0A34.57,34.57,0,0,0,62,68.78l.48,4.63a50,50,0,0,1-2.7-10.58c-.07-.44-.74-.25-.68.18l1.56,10.34a31.74,31.74,0,0,1-2.68-8.62c-.07-.56-.15-1.13-.23-1.69-.05-.39-.72-.3-.68.09.06.56.14,1.11.22,1.66.39,2.84.77,5.69,1.15,8.53a30.14,30.14,0,0,1-2.61-6.86c-.2-1.1-.41-2.19-.62-3.28-.07-.38-.73-.3-.68.09a.29.29,0,0,0,0,.09h0l0,.08q.21,1.55.57,3.06l1.09,5.8A64.54,64.54,0,0,1,52.67,63a.35.35,0,0,0-.68.18l1.56,9.68a30.25,30.25,0,0,1-3.65-8.33c-.11-.44-.75-.25-.67.18.52,2.71,1,5.41,1.54,8.12a38.24,38.24,0,0,1-2.55-8c-.09-.44-.74-.25-.67.19.5,3,1,6,1.51,9a36.33,36.33,0,0,1-3.24-9c-.1-.44-.76-.25-.67.18.5,2.2,1,4.4,1.51,6.6l-3.24-9a.35.35,0,0,0-.67.19q1.38,6.32,2.77,12.63a66.71,66.71,0,0,1-4.74-15.2c-.09-.44-.76-.26-.67.18L42.9,74.62a79.57,79.57,0,0,1-4.06-10.85c-.5-1.92-1-3.85-1.49-5.78-.11-.43-.77-.25-.67.19.42,1.94.92,3.86,1.48,5.77s1,3.85,1.49,5.77l-3.91-9.9c-.16-.4-.8-.25-.67.19q1.59,5.55,3.19,11.1A83,83,0,0,1,33.92,60.4a.35.35,0,0,0-.67.19L36,71.24c-.39-1-.75-2-1.09-3.07l-2.25-8.83c-.11-.44-.75-.25-.67.18a67.81,67.81,0,0,0,2.24,8.82c.21.79.41,1.58.61,2.37A60.67,60.67,0,0,1,31.68,62c-.36-1.6-.73-3.2-1.14-4.79-.11-.44-.76-.25-.67.19.32,1.61.7,3.21,1.14,4.78q1.18,5.25,2,10.54A72.39,72.39,0,0,1,25.84,54c-.11-.43-.77-.25-.67.19q1.93,7.72,3.88,15.45a119.24,119.24,0,0,1-6.3-17.94.35.35,0,0,0-.67.19q2.42,9,4.84,18a102.45,102.45,0,0,1-6.11-16.18c-.39-1.5-.79-3-1.18-4.49a.35.35,0,0,0-.67.19c.35,1.5.75,3,1.18,4.48L23.5,66.72,15.25,44.26a.35.35,0,0,0-.67.19q1.3,6.38,3,12.65C16.36,53.41,15.13,49.7,14,46a.35.35,0,0,0-.68.19l6.75,23.92q-3.33-7-5.95-14.34c-.45-1.37-.92-2.74-1.4-4.1-.15-.42-.82-.25-.68.18.45,1.38.93,2.75,1.42,4.12q2.94,8.88,5,18a37.1,37.1,0,0,1-2.92-5.45L13,59.92a.35.35,0,0,0-.67.18,37.88,37.88,0,0,0,2.56,8.66l.6,2q-1.54-3.26-3.07-6.5c-.17-.35-.78-.1-.64.27a53.07,53.07,0,0,1,2.45,8.92L12.7,70.29c-.19-.37-.72-.1-.64.27l.69,3.11c-.23-.5-.47-1-.71-1.48a.29.29,0,0,0-.31-.18l-.28-31.59Q27.91,51.58,45,61.71a.28.28,0,0,0,.24.12.26.26,0,0,0,.15,0l3.94.15a.24.24,0,0,0,.17,0h1a.24.24,0,0,0,.17,0l3.94-.15a.26.26,0,0,0,.15,0,.28.28,0,0,0,.24-.12q17.1-10.12,33.56-21.29Z"/></svg>