<svg id="Example_3" data-name="Example #3" xmlns="http://www.w3.org/2000/svg" xmlns:xlink="http://www.w3.org/1999/xlink" viewBox="0 0 100 100"><defs><style>.cls-1{fill:url(#linear-gradient);}</style><linearGradient id="linear-gradient" x1="31.59" y1="51.41" x2="70.84" y2="51.41" gradientUnits="userSpaceOnUse"><stop offset="0.01" stop-color="aqua"/><stop offset="0.48" stop-color="#2b9fda"/><stop offset="1" stop-color="#009245"/></linearGradient></defs><path class="cls-1" d="M70.51,11.49A48.59,48.59,0,0,0,57,11.6c-3.56.54-7.39,1.36-10.29,3.63C40.14,20.39,42.44,29.9,40.92,37l-8.11.13a.33.33,0,0,0-.33.33.3.3,0,0,0-.1.22q-.39,7.08-.79,14.14a.36.36,0,0,0,.44.34A23.47,23.47,0,0,1,40.87,52a.4.4,0,0,0,.19,0,375.47,375.47,0,0,0-.14,39.27.35.35,0,0,0,.54.28.39.39,0,0,0,.19.06h1.2l.09.08a.36.36,0,0,0,.54-.07l14.46.13A.35.35,0,0,0,58,91a.33.33,0,0,0,.16-.29q0-19.55,0-39.1l11.6.16a.32.32,0,0,0,.33-.3.3.3,0,0,0,.2-.3q-.06-6.73-.13-13.46a.36.36,0,0,0-.16-.66l-12.1-.63-.09,0c-.34-3.22-.61-6.95,1.8-9.46s6.93-2.55,10.2-2.27a.29.29,0,0,0,.33-.31.35.35,0,0,0,.62-.22q-.12-6-.22-12C71,12.16,70.93,11.55,70.51,11.49ZM32.78,43.09c.34.59.69,1.17,1.06,1.73a28.65,28.65,0,0,1,1.49,3A21.54,21.54,0,0,1,33,43.79a.29.29,0,0,0-.2-.18Zm-.1,1.8c.45,1,.91,2.09,1.37,3.14L33,46.71a.29.29,0,0,0-.4-.06C32.61,46.06,32.64,45.48,32.68,44.89Zm-.15,2.65c.08.31.16.63.25.94a.38.38,0,0,0-.31,0Zm8.52,3.76a24.68,24.68,0,0,0-8.74.12l.06-1h0a.87.87,0,0,0,.83-.15l.07.11a.35.35,0,0,0,.64-.27l-.45-1.7,1.68,2.07c.27.34.69-.09.55-.42l-.58-1.31c.33.42.67.84,1,1.24a.36.36,0,0,0,.59-.34c-.2-.59-.42-1.18-.65-1.75q.8,1,1.65,1.92a.36.36,0,0,0,.59-.34c-.11-.38-.24-.75-.37-1.11L39,49.84c.21.29.8.13.64-.27l0-.08h0c-.4-1-.83-2-1.28-2.9L41,50.4c.25.37.83,0,.6-.35l-1.91-3.19c1.06,1.49,2.11,3,3.16,4.48a.35.35,0,0,0,.6-.35q-2.11-4.12-4.24-8.23L44,49.56a.35.35,0,0,0,.6-.36c-1.12-2.49-2.24-5-3.37-7.48A63.33,63.33,0,0,0,46,47.58c.28.31.7-.08.54-.42C46,46.1,45.54,45,45.05,44a34.22,34.22,0,0,0,3,3.49c.29.29.71-.08.55-.43q-1.22-2.55-2.41-5.1c.75,1.08,1.52,2.13,2.35,3.15.27.33.7-.1.55-.43q-2-4.26-3.88-8.53L49.92,43a.35.35,0,0,0,.6-.35c-1.06-2.27-2.12-4.53-3.19-6.8,1.06,1.61,2.18,3.17,3.38,4.69.21.27.7,0,.58-.34q-.93-2.4-2-4.72l3.21,5.17a.38.38,0,0,0-.27.53,25.75,25.75,0,0,0,1.54,3.06A33.6,33.6,0,0,1,55.43,49l-3.89-5.36a.35.35,0,0,0-.6.35l1.9,3.93-1.12-1.82a.35.35,0,0,0-.61.35,39.65,39.65,0,0,1,2.94,6.47,33.45,33.45,0,0,1-4.54-6.34c-.22-.4-.82-.05-.61.35L53.22,55l-5.57-6.58c-.25-.3-.79.1-.55.42a76.73,76.73,0,0,1,6.35,10A79.38,79.38,0,0,1,45.63,48a.35.35,0,0,0-.61.36q2.55,4.43,5.09,8.86c-1.49-2.06-3-4.07-4.64-6-.25-.31-.75.09-.55.42l9.92,16.12L44,55.06c-.26-.3-.76.09-.55.42L53.76,71.77,42.58,59.19c-.26-.3-.77.09-.55.42L52.41,74.76,42,62.89c-.25-.3-.78.1-.54.42q5.94,8.11,11.89,16.22A98.72,98.72,0,0,1,43.09,67.34c-.26-.36-.84,0-.6.36q4.41,7.18,9.45,13.93l-9.61-9.92c-.32-.33-.77.15-.5.49l11.45,14Q47.87,81,43,75.23c-.25-.3-.79.11-.55.42l10,12.95A89.94,89.94,0,0,1,42.2,77.67c-.25-.31-.79.11-.55.42q3.43,4.55,6.86,9.08l-3.9-4c-.76-.82-1.54-1.63-2.36-2.4a.35.35,0,0,0-.49.49l2.34,2.39a47.1,47.1,0,0,1,3.74,4.59,38.66,38.66,0,0,1-4.77-5.52c-.26-.36-.85,0-.6.35q1.94,3.07,3.89,6.15a32.62,32.62,0,0,1-4.68-5.33.34.34,0,0,0-.35-.15q-.46-16,.44-32.08a.34.34,0,0,0-.54-.28A.34.34,0,0,0,41.05,51.3ZM46.5,90.91,45.32,89.2q.93.9,1.92,1.71Zm-2,0-.8-1.2a18.53,18.53,0,0,0,1.56,1.21Zm-2.59-2.46a.33.33,0,0,0-.44-.13l0-.71,1.27,1.89A8.77,8.77,0,0,1,41.93,88.43Zm-.45-2.05a.23.23,0,0,0-.07-.07c0-.55,0-1.1,0-1.64q1.74,2.52,3.47,5A18.91,18.91,0,0,1,41.48,86.38Zm6.71,4.45L46,87.42a39.3,39.3,0,0,0,3.44,3.26c.29.24.78-.07.55-.43-.38-.6-.79-1.18-1.19-1.77L51.25,91l-3,0A.36.36,0,0,0,48.19,90.83Zm4.06.13L48,85.38c1.9,2,3.9,3.81,6,5.59Zm2.83,0-6.72-8.73c2.66,2.79,5.4,5.5,8.25,8.09a.35.35,0,0,0,.5-.49L47.46,78l8.27,8.55c.32.33.77-.15.5-.5-3.07-3.83-5.95-7.79-8.7-11.85A101.23,101.23,0,0,0,55.85,83c.28.26.8-.09.55-.42L46.72,69.33l9,10.28c.26.3.77-.09.55-.42L45.75,63.8,56.11,75.47a.35.35,0,0,0,.55-.42q-5-8-10.07-15.9L57.18,71.47a.27.27,0,0,0,.32.09q0,9.6,0,19.18a.35.35,0,0,0,.13.27Zm3.09-40a.3.3,0,0,0-.28.16.33.33,0,0,0-.39.33V70.67L48.94,56.76c2,2.75,4,5.55,5.78,8.44a.35.35,0,0,0,.61-.35L50.25,56c1.44,1.88,3,3.69,4.55,5.45.28.3.71-.09.55-.43a78.17,78.17,0,0,0-3.84-6.95Q53.15,56,54.8,58c.26.32.73-.08.55-.42-1-1.81-1.93-3.63-2.89-5.44.69.84,1.42,1.67,2.2,2.45a.35.35,0,0,0,.58-.34c-.27-.87-.58-1.73-.9-2.58l1.51,2.46a.35.35,0,0,0,.61-.35q-1.6-3.28-3.19-6.58l2.62,3.61a.35.35,0,0,0,.64-.26,34.47,34.47,0,0,0-1-3.65,25.76,25.76,0,0,0,1.87,2.19.35.35,0,0,0,.58-.34,38.15,38.15,0,0,0-1.82-6.15c1.09,1.56,2.17,3.13,3.25,4.69a.35.35,0,0,0,.64-.27A29.62,29.62,0,0,0,59,43.53l2.69,4.19c.2.31.79.11.64-.27-.48-1.18-1-2.36-1.45-3.55a30.38,30.38,0,0,0,2.5,3.18c.22.24.71,0,.58-.34l-1.38-3.4a40.79,40.79,0,0,0,3.52,4.37.35.35,0,0,0,.58-.34c-.54-1.72-1.09-3.43-1.63-5.15q1.43,2.33,2.87,4.64c.17.28.68.19.65-.17a32,32,0,0,0-.5-3.4l1.29,2.82a.28.28,0,0,0,.24.17c0,1.61,0,3.21,0,4.82ZM69.85,24.05c-3.44-.3-8.12-.24-10.7,2.46s-2.33,6.91-1.94,10.43a.37.37,0,0,0,.65.19l.08,0,11.56.6.06,6.47-1-4.06a.35.35,0,0,0-.68.09v.91l-1-2.27c-.17-.36-.78-.1-.64.27a28.55,28.55,0,0,1,1.52,6c-1.18-1.89-2.35-3.79-3.53-5.69a.35.35,0,0,0-.64.27q1,3.12,2,6.24a39.48,39.48,0,0,1-4.37-6.19c-.19-.33-.79-.11-.64.27.66,1.61,1.31,3.22,2,4.84a30.35,30.35,0,0,1-3.77-6.33c-.16-.36-.79-.1-.64.27.73,1.77,1.45,3.55,2.18,5.32l-3.84-6c-.24-.37-.84,0-.61.36a30,30,0,0,1,3,6.65l-4.18-6a.35.35,0,0,0-.61.35,37,37,0,0,1,3,8.12A25.55,25.55,0,0,1,54.4,44c-.41-.94-.87-1.85-1.37-2.75a.36.36,0,0,0,.31-.52L47.72,29.41l5.63,8.8a.35.35,0,0,0,.6-.35l-5.6-10.81,6.71,9.53a.35.35,0,0,0,.6-.36L50,25.73l4.47,6.55a.35.35,0,0,0,.6-.35q-2.3-4.69-4.58-9.38L54.06,28a.35.35,0,0,0,.64-.26,37.17,37.17,0,0,0-1.81-5.2l2.27,3.28a.35.35,0,0,0,.6-.35c-.49-1.13-1-2.27-1.46-3.4.62.91,1.26,1.8,2,2.66.23.29.64,0,.58-.34-.2-1-.45-2-.72-2.92.3.49.61,1,.94,1.47a.35.35,0,0,0,.64-.27c-.16-.82-.36-1.63-.58-2.43l1.18,2.26c.19.37.72.1.64-.27l-.65-3.08c.32.82.64,1.64,1,2.46a.35.35,0,0,0,.67-.19c-.21-1.51-.42-3-.64-4.53.48,1.42,1,2.84,1.42,4.26a.35.35,0,0,0,.69-.09,27.35,27.35,0,0,0-.32-3.74q1,2.36,2,4.69c.13.32.67.16.65-.18a27.21,27.21,0,0,0-.46-3.26c.49.84,1,1.67,1.59,2.47.21.29.8.12.64-.27l-1.14-2.71,2.2,3.3a.35.35,0,0,0,.64-.27c-.39-1.35-.77-2.69-1.15-4l2.53,4.82c.18.34.77.11.64-.27l-.69-2,.28.6c.18.37.72.1.64-.27l-.86-3.79.12.19c.24.38.85,0,.61-.35-.41-.63-.81-1.27-1.21-1.9a.35.35,0,0,0-.64.27l.6,2.66-1.82-3.86c-.17-.36-.77-.11-.64.27.45,1.28.9,2.56,1.36,3.84-.63-1.19-1.26-2.37-1.88-3.56a.35.35,0,0,0-.64.27q.73,2.55,1.46,5.12l-3-4.46c-.21-.31-.8-.12-.64.26L63,16.44c-.25-.52-.48-1-.7-1.56s-.32-.87-.5-1.3l0-.09h0l0-.09c-.16-.36-.77-.1-.64.27.2.59.43,1.15.66,1.72a23.85,23.85,0,0,1,1,4.07l-2.67-6.2c-.15-.36-.76-.11-.63.27a25.52,25.52,0,0,1,1,4.78l-1.74-5.25a.35.35,0,0,0-.68.19c.26,1.8.51,3.61.76,5.41-.47-1.2-.94-2.4-1.42-3.6a.35.35,0,0,0-.67.18l1,4.67-2.29-4.37c-.21-.41-.78,0-.6.35a31.51,31.51,0,0,1,1.74,5,36.68,36.68,0,0,1-1.79-3.32c-.33-.84-.69-1.66-1.08-2.48-.17-.35-.78-.1-.63.27l0,.09h0c.32.81.67,1.6,1,2.39A39.58,39.58,0,0,1,55.81,23,37.06,37.06,0,0,1,52,16.72c-.2-.41-.78,0-.61.35q1.19,2.76,2.38,5.52-2.06-3-4.12-5.95c-.25-.37-.85,0-.6.35a35.78,35.78,0,0,1,4.26,8.58q-2.66-4.08-5.3-8.16a.35.35,0,0,0-.6.36l5,10.17-5.5-8.07a.35.35,0,0,0-.6.36l6,11.23-6.33-9a.35.35,0,0,0-.6.35l4.42,8.54-5-7.77a.35.35,0,0,0-.6.35l5.25,10.58-5.72-9.19c-.24-.38-.84,0-.6.35a86.34,86.34,0,0,1,6.42,12.23,68.28,68.28,0,0,1-5.9-9.78c-.2-.41-.79-.05-.6.35l5,10.57-4.53-6.65a.35.35,0,0,0-.6.35q2.13,4.71,4.28,9.4a50.65,50.65,0,0,1-3.85-6.25c-.21-.41-.79,0-.6.35L47,45.32a31.57,31.57,0,0,1-4.44-6.72c-.2-.41-.79-.05-.6.35,1,2.12,1.94,4.23,2.92,6.35A62.17,62.17,0,0,1,39.54,38a.35.35,0,0,0-.6.35l3.57,7.94-5.62-7.93a.35.35,0,0,0-.61.35l4.21,8.15-5.61-8c-.26-.36-.84,0-.61.35l1,1.75-1.06-1.54c-.25-.37-.86,0-.6.35a54.15,54.15,0,0,1,4,6.93L36.54,45.2a21.63,21.63,0,0,0-3-4.2c-.26-.28-.78.1-.55.42l3,4.16A19.17,19.17,0,0,1,37.08,48a36.69,36.69,0,0,1-2.64-3.55c-.36-.63-.74-1.27-1.16-1.88a.34.34,0,0,0-.47-.11c.09-1.54.17-3.08.26-4.62L41,37.72a.32.32,0,0,0,.3-.2.29.29,0,0,0,.32-.24c1.48-6.8-.79-16.12,5.19-21.2,3-2.57,7.21-3.37,11-3.89a48,48,0,0,1,12.09-.07l.22,12.05A.32.32,0,0,0,69.85,24.05Z"/></svg>