<svg id="Example_3" data-name="Example #3" xmlns="http://www.w3.org/2000/svg" xmlns:xlink="http://www.w3.org/1999/xlink" viewBox="0 0 100 100"><defs><style>.cls-1{fill:url(#linear-gradient);}</style><linearGradient id="linear-gradient" x1="9.11" y1="50" x2="90.89" y2="50" gradientUnits="userSpaceOnUse"><stop offset="0.15" stop-color="#ec008c"/><stop offset="0.5" stop-color="#ed1651"/><stop offset="0.85" stop-color="#f58220"/></linearGradient></defs><path class="cls-1" d="M88.34,33.66a39.07,39.07,0,0,0-13.75-17.5C61.52,7,43.71,6.81,30.14,15A43.79,43.79,0,0,0,10.63,40.91a.35.35,0,0,0-.24.4l.06.3A42.36,42.36,0,0,0,9.18,54.54c.94,16.63,12.56,31.55,28.72,36,.05.34.62.32.67-.08A59.06,59.06,0,0,0,38.84,82a.35.35,0,0,0-.55-.26.31.31,0,0,0-.25,0,10.24,10.24,0,0,1-12.57-3.9c-2.09-3.47-2.16-8.08-5.33-10.78a13.59,13.59,0,0,1,7.55,3.55c1.84,1.72,3.42,3.82,5.82,4.81,4.39,1.83,7.55-1.6,7.6-5.88a.3.3,0,0,0-.07-.2l.34.06c.42.06.6-.59.18-.65A20,20,0,0,1,26.63,58.26,19.92,19.92,0,0,1,28,38.4a.27.27,0,0,0,0-.31q-.06-5.73-.1-11.45a26.35,26.35,0,0,1,10.9,4.62.36.36,0,0,0,.41.27.29.29,0,0,0,.35-.14,21.06,21.06,0,0,1,19.32.67.39.39,0,0,0,.21,0c0,.27.33.51.55.25a23.13,23.13,0,0,1,9.17-6.77.16.16,0,0,0,.08,0,18,18,0,0,1,1.6,12.83c-.11.42.54.6.64.18a18.62,18.62,0,0,0-1.7-13.43A.31.31,0,0,0,69,25a.25.25,0,0,0-.32-.08,23.8,23.8,0,0,0-9.28,6.72.26.26,0,0,0-.14-.17A21.76,21.76,0,0,0,41.31,30c-.37-3.62-.75-7.23-1.13-10.85q.93,4.11,1.85,8.22a.34.34,0,0,0,.67-.09l-.29-8.48a57.9,57.9,0,0,0,2.14,7.81c.12.34.69.31.66-.09L45,22.29c.32,1.53.7,3.05,1.15,4.56.11.35.68.3.66-.09l-.18-5.07c.28,1.46.61,2.92,1,4.36a.34.34,0,0,0,.66-.09C48.2,22.49,48.1,19,48,15.54l2.19,8.76c.11.43.72.23.65-.18-.33-2.15-.57-4.3-.74-6.45l1.38,9.07c.06.37.69.28.67-.09l-.44-8,1.09,7.72c.05.38.67.29.66-.09q0-3.72-.08-7.44c.21,1.6.42,3.21.64,4.82.12,1.27.28,2.54.49,3.8.07.37.71.29.66-.09-.16-1.26-.33-2.53-.49-3.79a55.79,55.79,0,0,1-.25-6.2c.29,2.77.59,5.54.88,8.31.06.82.15,1.63.25,2.45l0,.12h0s0,.06,0,.09c0,.37.7.29.66-.09L56,25.42a48.22,48.22,0,0,1,.14-9l1.26,11.82a.34.34,0,0,0,.68,0q.31-4.77.65-9.53c.23,3.26.59,6.5,1.12,9.73.06.38.66.28.66-.09A84,84,0,0,1,61.37,16c.39,3.39.77,6.79,1.16,10.18,0,.42.69.45.67,0a65.59,65.59,0,0,1,.29-9.61c.44,1.94.89,3.89,1.33,5.84a.34.34,0,0,0,.66-.09c0-1.54,0-3.07,0-4.61.37,2,.75,4.06,1.12,6.09.06.32.61.33.65,0l.12-.84a.37.37,0,0,0-.31-.41L65.48,14c-.07-.38-.66-.28-.66.09v5.27L63.7,14.44c-.1-.4-.62-.26-.66.09-.26,1.91-.42,3.82-.51,5.73-.26-2.24-.51-4.49-.77-6.73,0-.34-.59-.5-.66-.09a84.78,84.78,0,0,0-1.22,10.89,107.83,107.83,0,0,1-.8-11.5.34.34,0,0,0-.67,0q-.4,5.79-.79,11.58c-.39-3.59-.77-7.18-1.16-10.77,0-.34-.59-.5-.66-.09-.28,1.68-.46,3.36-.57,5l-.57-5.47a.34.34,0,0,0-.68,0c-.11,1.18-.18,2.36-.21,3.53-.15-1.13-.3-2.26-.44-3.39-.06-.41-.68-.45-.68,0l.08,7.88c-.48-3.45-1-6.89-1.45-10.34-.06-.37-.69-.28-.67.09.17,2.95.33,5.91.49,8.86L49.84,11.5c-.06-.38-.66-.28-.66.09,0,2.47.15,4.92.37,7.37L47.9,12.38a.34.34,0,0,0-.66.09l.29,10.3a56.88,56.88,0,0,1-1.24-10.18c0-.43-.69-.43-.67,0,.14,3.74.27,7.48.41,11.22a54.43,54.43,0,0,1-1.43-9.25l-.09-1.77c0-.43-.69-.44-.68,0,0,.6.06,1.2.1,1.8L44.41,24A56.51,56.51,0,0,1,42.2,12.79c0-.43-.69-.44-.67,0,.12,3.62.25,7.25.37,10.87L39.59,13.38c-.09-.37-.71-.3-.67.09q.69,6.57,1.37,13.16a126.47,126.47,0,0,1-3-12.62.34.34,0,0,0-.66.09,93.74,93.74,0,0,0,1.14,10c-.92-3-1.71-6.09-2.33-9.2a.34.34,0,0,0-.67.09,82.11,82.11,0,0,0,.65,9.79,41.3,41.3,0,0,1-1.82-9c0-.43-.7-.44-.67,0l.63,8.66a31,31,0,0,1-2.12-8.34c-.05-.42-.7-.44-.67,0l.48,7-2-6.7h0a40.82,40.82,0,0,1,40.11-2.56A37.91,37.91,0,0,1,90.06,51.05c-.88,9.06-4.75,17.76-10.13,25A39,39,0,0,1,67.19,87.57,75.8,75.8,0,0,1,62.28,76a70.84,70.84,0,0,0,6.17,10.26c.21.28.77.12.62-.26q-2.13-5.52-4.24-11a101.27,101.27,0,0,0,5.55,8.83A.34.34,0,0,0,71,83.4a78.12,78.12,0,0,1-3.65-9.31A60.92,60.92,0,0,0,72.48,83a.34.34,0,0,0,.62-.26c-.54-2.17-1.17-4.31-1.86-6.43.92,1.72,1.89,3.41,2.94,5.06.19.31.76.11.61-.25Q73,76.83,71.66,72.4A53.66,53.66,0,0,0,75,78.48c.2.31.74.12.61-.26L73.49,72a58.69,58.69,0,0,0,3.08,5.17c.21.31.74.13.62-.25-.76-2.36-1.53-4.72-2.29-7.08a26.14,26.14,0,0,0,3.63,4.72.33.33,0,0,0,.56-.32L77.5,69.54a32.32,32.32,0,0,0,2.82,4c.23.27.64,0,.57-.33q-.67-2.74-1.5-5.45a30.65,30.65,0,0,0,2.36,3.11.35.35,0,0,0,.57-.33q-1.84-5.39-3.67-10.76c1.49,3,3.09,6,4.83,8.89a.34.34,0,0,0,.61-.26q-1.38-5-3.1-10c1.21,2.29,2.5,4.55,3.86,6.76.19.32.75.12.62-.25Q82.73,57.54,80,50.11a51.17,51.17,0,0,0,6.54,8.79.34.34,0,0,0,.56-.33q-2.76-8.2-5.51-16.4a152.7,152.7,0,0,0,6.9,13.63c.22.38.75,0,.58-.34a110.14,110.14,0,0,1-7-20.89,131.89,131.89,0,0,0,6.12,15.54c.17.34.73.1.62-.26Q86.42,42,84.42,34l4.23,11.77a.34.34,0,0,0,.65-.18c-.18-1.3-.39-2.6-.64-3.88.2.28.72.1.6-.27L86.44,33c-.21-.65-.42-1.29-.65-1.93-.14-.41-.78-.24-.64.18l.64,1.92a75.81,75.81,0,0,1,2.27,9Q85.49,35,82.91,27.85a.34.34,0,0,0-.65.18q2,8.67,4.48,17.24a132,132,0,0,1-5.91-17.11V28l.7,2.23c.13.41.78.24.65-.18-.44-1.38-.87-2.75-1.3-4.13a.34.34,0,0,0-.67.09l0,1.46a.34.34,0,0,0-.15.36c0,.23.08.46.12.69l0,.68Q79,25,77.89,20.78c-.1-.35-.71-.3-.66.09q.58,4.61,1.19,9.21a93.14,93.14,0,0,1-3-11.16c-.09-.44-.71-.24-.65.17L76.44,30l-3.12-11.1a.34.34,0,0,0-.65.18,124.81,124.81,0,0,1,2.45,18.65.31.31,0,0,0-.26.34,50.77,50.77,0,0,1-2.21-8.56c.2,0,.44-.07.41-.31-.37-3.11-.75-6.22-1.12-9.33a.34.34,0,0,0-.67,0c0,.87,0,1.73,0,2.59q-.91-3.42-1.82-6.85a.34.34,0,0,0-.67.09c.09,1.52.17,3,.25,4.56-.36-1.48-.72-2.95-1.09-4.42-.1-.42-.75-.24-.65.18l2,7.89c.09.36.69.29.66-.09-.08-1.63-.17-3.25-.26-4.87q.91,3.48,1.85,7a51.41,51.41,0,0,0,3.67,14.85.36.36,0,0,0,.57.14c.54,1.54,1.14,3.06,1.81,4.54l6,16.26q-2.61-4.53-4.8-9.28-1.44-3.68-3.06-7.27c-.16-.34-.76-.1-.62.26.94,2.46,2,4.89,3.07,7.28Q80.72,59.24,82.7,66a123.94,123.94,0,0,1-6.07-12.08c-.15-.35-.74-.1-.62.26L81.07,69a28.73,28.73,0,0,1-2.6-4q-1.17-3.46-2.59-6.86h0l0-.08c-.15-.36-.7-.1-.62.26a29.73,29.73,0,0,0,2.63,7c.73,2.18,1.38,4.39,2,6.63a31.07,31.07,0,0,1-4.14-7.64l-.67-2a.34.34,0,0,0-.65.18c.2.68.44,1.35.68,2q1.45,4.26,2.89,8.52A25.25,25.25,0,0,1,73.34,65l-.61-1.87a.34.34,0,0,0-.65.17c.18.65.4,1.29.62,1.92l3,9.36a54.45,54.45,0,0,1-4.78-10c-.14-.4-.79-.23-.65.18l3.63,10.65A54.16,54.16,0,0,1,70,66.61a.34.34,0,0,0-.65.18,100.13,100.13,0,0,0,3.3,10.78,80.8,80.8,0,0,1-3.91-7.85c-.28-.65-.56-1.3-.85-2-.15-.34-.76-.09-.61.26l0,.08h0l.21.48c.2.47.4.94.61,1.41A89.14,89.14,0,0,1,72,81a59,59,0,0,1-6.15-12.27.34.34,0,0,0-.65.18,79.06,79.06,0,0,0,3.71,11.37,103.16,103.16,0,0,1-6-10.58c-.16-.34-.75-.1-.61.26q2.61,6.78,5.21,13.57a70.17,70.17,0,0,1-6.54-12.28c-.16-.39-.76-.26-.64.18A77.55,77.55,0,0,0,65,84.64a50,50,0,0,1-4-7.53l-1.2-3c-.16-.39-.8-.23-.65.18.37,1.05.78,2.08,1.22,3.09l3.28,8.32A49.56,49.56,0,0,1,59,77.45a.3.3,0,0,0-.22-.16q-.15-4,0-7.94a18.35,18.35,0,0,0,15.78-11,18.37,18.37,0,0,0-3.88-19.42c-.3-.31-.78.17-.48.48A17.67,17.67,0,0,1,73.91,58,17.66,17.66,0,0,1,58.14,68.71a.33.33,0,0,0-.06.66A126.3,126.3,0,0,0,59.18,90l0,.07-.07.43a.35.35,0,0,0,.42.42,26.22,26.22,0,0,0,7.35-2.47l0,0c.23.29.63,0,.55-.34a37.92,37.92,0,0,0,11.18-9.4,54.43,54.43,0,0,0,11-21.71A38.94,38.94,0,0,0,88.34,33.66ZM28.58,16.79,29,22l-1.29-4a.37.37,0,0,0-.47-.21C27.68,17.41,28.13,17.1,28.58,16.79Zm9.6,65.65c0,1.31,0,2.62,0,3.93-.3-1-.6-1.9-.89-2.85-.11-.35-.7-.31-.66.09.05.56.11,1.12.16,1.68a10.77,10.77,0,0,1-.49-2.07.26.26,0,0,0-.12-.19A11.24,11.24,0,0,0,38.18,82.44ZM27,80.66a11.06,11.06,0,0,0,8.73,2.45.28.28,0,0,0-.08.2l.09,3.15-.15-.41c-.15-.41-.8-.23-.65.18l.87,2.36c.13.34.67.32.66-.09,0-.79,0-1.58-.07-2.37A11,11,0,0,0,37,87.47c.16.28.66.18.63-.17l0-.49,0,.08a.34.34,0,0,0,.5.19c0,.91-.1,1.83-.18,2.75a36.84,36.84,0,0,1-8.29-3.45.27.27,0,0,0,.21-.3l0-.81a9.08,9.08,0,0,0,.93,1.5.34.34,0,0,0,.63-.17c0-.41.09-.82.13-1.24a7,7,0,0,0,1.1,1.77.34.34,0,0,0,.58-.23v-.26a12,12,0,0,0,.91,1.78.34.34,0,0,0,.62-.17c.05-1.27.1-2.53.14-3.8,0-.43-.66-.43-.67,0L34.11,87a11.79,11.79,0,0,1-.86-2.42.34.34,0,0,0-.66.09l0,1.24a6.08,6.08,0,0,1-.85-2.35c-.06-.41-.62-.26-.66.09-.08.67-.15,1.35-.22,2a8.57,8.57,0,0,1-1.1-2.74.34.34,0,0,0-.66.09c0,.62.05,1.24.08,1.86A9.87,9.87,0,0,1,28,81.7a.34.34,0,0,0-.66.09c0,.62.06,1.24.08,1.86a7.94,7.94,0,0,1-1-1.65c-.2-.86-.41-1.72-.61-2.59A7.65,7.65,0,0,0,27,80.66Zm.23-54.84q0,6.13.11,12.28a.11.11,0,0,0,0,.06A20.12,20.12,0,0,0,40.61,69.3a.29.29,0,0,0-.17.28c0,2.56-1.26,5.64-4.25,5.75-2.84.11-4.95-2.06-6.78-3.92-2.93-3-6.19-4.89-10.43-5.09a.34.34,0,0,0-.17.63c4.3,2.59,4,8.38,6.8,12.22a.33.33,0,0,0-.47.3,8.58,8.58,0,0,0,.41,2.11,22.06,22.06,0,0,1-2.86-8.14c-.06-.43-.71-.25-.65.17.13.91.26,1.82.38,2.73a56.07,56.07,0,0,1-1.37-6.8c-.05-.42-.7-.45-.67,0,.11,1.76.22,3.52.32,5.28a44.42,44.42,0,0,1-1.57-6.56c-.08-.43-.71-.24-.65.18A30.34,30.34,0,0,1,19,75a32,32,0,0,1-1.43-6.38c-.05-.43-.72-.43-.67,0a32.84,32.84,0,0,0,2,8.16.34.34,0,0,0,.66-.09,29.86,29.86,0,0,0,.11-3.13c.35,1.25.75,2.48,1.22,3.69.13.33.69.32.66-.09L21.39,75A56.83,56.83,0,0,0,23,80.7a.34.34,0,0,0,.65-.18c-.08-.54-.15-1.08-.23-1.61a22.61,22.61,0,0,0,2.7,4.84.36.36,0,0,0,.53.06,9.2,9.2,0,0,0,.86,1,.34.34,0,0,0,.58-.24v-.25a10.12,10.12,0,0,0,1,1.73A39.33,39.33,0,0,1,10.62,60.43c-.11-.53-.21-1.06-.3-1.6a54.21,54.21,0,0,0,5.46,12.4A.34.34,0,0,0,16.4,71q-2.07-8.35-4.13-16.71c-.1-.42-.75-.25-.65.18l3.54,14.32a53.17,53.17,0,0,1-4.63-11.67.31.31,0,0,0-.47-.19,41.64,41.64,0,0,1,.7-13.69c.2,1,.42,2,.65,2.93.7,3.18,1.46,6.36,2.27,9.51q-.79-2.37-1.61-4.74c-.14-.41-.79-.23-.65.18l5.7,16.74a.34.34,0,0,0,.65-.18q-1.64-5.3-3-10.66,1.08,2.91,2.36,5.74c.17.36.7.09.62-.26l-3.6-15.83,4.8,14.15a.34.34,0,0,0,.47.2l.09,1.67-.56-1.52c-.15-.41-.8-.23-.65.18L19.61,65c.13.33.69.32.66-.09l-.15-2.7a14,14,0,0,0,1.72,3.11c.17.24.66.19.63-.17L22,59.83a27.22,27.22,0,0,0,2.74,5.93.33.33,0,0,0,.62-.17c0-1.76-.15-3.5-.34-5.24.76,2.79,1.53,5.57,2.3,8.36a.33.33,0,0,0,.61.06,22.51,22.51,0,0,0,1.22,2.33c.15.26.67.18.62-.17l-.33-2.74a23.78,23.78,0,0,0,1.77,3.71c.16.27.67.18.63-.17l-.13-1.14a15.18,15.18,0,0,0,2,3.37c.24.3.61,0,.57-.33l-.29-2a17.29,17.29,0,0,0,1.14,2.17c.16.27.66.18.63-.17l-.15-1.78c.16.38.33.75.53,1.12a.34.34,0,0,0,.62-.17v-.64a9.78,9.78,0,0,0,.7,1.31.33.33,0,0,0,.62-.17l0-1.46a5,5,0,0,0,.57.67c.32.29.8-.18.48-.48A3.32,3.32,0,0,1,38,69.83c-.06-.42-.69-.45-.68,0,0,.66.06,1.33.08,2a8.07,8.07,0,0,1-.64-2.31c0-.42-.68-.45-.67,0l0,1.61a13.3,13.3,0,0,1-.76-2.9c-.05-.37-.69-.29-.66.09.11,1.26.21,2.52.32,3.77a17,17,0,0,1-1.64-5.15c-.06-.43-.71-.25-.65.18.25,1.77.51,3.54.76,5.31A14.16,14.16,0,0,1,31.21,66c0-.43-.71-.44-.67,0,.15,1.34.31,2.69.46,4a22.85,22.85,0,0,1-2.17-6.93c0-.37-.71-.29-.66.09.25,2,.49,4,.74,6a22.12,22.12,0,0,1-1.49-3.89L26.7,61.2a.34.34,0,0,0-.66.09l0,.25-2.37-8.6a.34.34,0,0,0-.65.18,55.25,55.25,0,0,1,1.62,11.15,26.88,26.88,0,0,1-3-9c-.06-.38-.69-.29-.66.08l.36,4.3a84,84,0,0,1-4.62-25,69.77,69.77,0,0,0,5.09,15.91c.16.34.74.1.61-.26a61.23,61.23,0,0,1-3.53-21,148.59,148.59,0,0,0,4.37,14.27.34.34,0,0,0,.65-.18c-.46-2.59-.91-5.18-1.37-7.77a46.69,46.69,0,0,0,1.91,4.5.34.34,0,0,0,.63-.17q-.21-3.07-.62-6.12c.25,1,.5,2,.76,3,.09.36.69.3.66-.09-.15-2-.38-4-.65-5.93l.29,1.09a.34.34,0,0,0,.66-.09,20.65,20.65,0,0,0-.9-8c-.13-.41-.78-.23-.65.18a20.54,20.54,0,0,1,.94,5.51q-.9-3.31-1.79-6.65a.34.34,0,0,0-.65.18c.7,3.07,1.23,6.17,1.62,9.29l-1.68-6.57c-.11-.42-.74-.24-.65.18a99.12,99.12,0,0,1,1.83,12.23,43.39,43.39,0,0,1-2.9-9.25L21,26.81c-.07-.43-.71-.25-.65.18.11.69.23,1.38.37,2.06q.9,5.21,1.82,10.39-2.07-6.25-3.58-12.67c-.09-.38-.64-.27-.66.09a61.36,61.36,0,0,0,1.53,16.89A67.81,67.81,0,0,1,16.7,30.38a.34.34,0,0,0-.67,0,84.73,84.73,0,0,0,1.44,17.43Q16,42.67,14.69,37.45c-.09-.36-.71-.29-.66.09a125.71,125.71,0,0,0,2.28,13.51q-1.81-5.38-3.64-10.76a.34.34,0,0,0-.65.18q2.1,9.26,4.21,18.53A89.81,89.81,0,0,1,12.1,46.12c-.33-1.49-.65-3-1-4.49A43.07,43.07,0,0,1,25.66,18.94c.47-.38,1-.75,1.44-1.11a.26.26,0,0,0-.05.2c.15,1.64.31,3.28.47,4.92l-1.2-3.36c-.11-.33-.71-.31-.66.09l.13,1a.36.36,0,0,0-.44.41c.34,1.45.67,2.9,1,4.35.08.36.7.29.66-.09l-.33-2.77c.34,1,.69,1.95,1,2.93A.33.33,0,0,0,27.21,25.82Zm-7.91,34a127.91,127.91,0,0,1-3.81-16.49q2.4,8.85,5.51,17.5a.36.36,0,0,0,.45.21c.08.94.16,1.89.23,2.83a13.62,13.62,0,0,1-1.77-5.08c-.05-.38-.68-.29-.66.09ZM29.25,25c.11.34.7.31.66-.09-.14-1.78-.29-3.56-.43-5.33q1,3.26,2,6.53c.1.35.68.3.66-.09-.11-1.52-.21-3-.32-4.55a32.92,32.92,0,0,0,1.93,5.08.34.34,0,0,0,.63-.17l-.27-3.71a43,43,0,0,0,1.8,5.46.34.34,0,0,0,.65-.18,79.44,79.44,0,0,1-1-9.36A100.52,100.52,0,0,0,38.8,29.44a.34.34,0,0,0,.65-.18,92,92,0,0,1-1.63-9.48Q39,25,40.66,30.14l0,0c-.48.18-.95.38-1.42.6A26.77,26.77,0,0,0,27.91,26s0,0,0,0v-.12c.2.18.6.11.57-.22-.15-1.51-.29-3-.43-4.51ZM78.84,33.3c.12.32.71.31.66-.09l-1-7.37,1.53,5.7a.33.33,0,0,0,.64,0A110.46,110.46,0,0,0,86,49.79a152.37,152.37,0,0,1-8-18.3.35.35,0,0,0-.65,0c-.25-1.68-.51-3.37-.76-5.05Q77.57,29.91,78.84,33.3Zm-3,5.49a92.07,92.07,0,0,0-1.32-13.25q1.38,4.93,2.77,9.86c.12.42.71.23.65-.18-.18-1.13-.35-2.27-.52-3.4q4.27,12.7,8.54,25.4c-.79-.9-1.54-1.83-2.26-2.79.24.15.62,0,.51-.35Q81,45.41,77.78,36.75c-.15-.41-.8-.23-.65.18q3.18,8.63,6.37,17.27a50.81,50.81,0,0,1-5.33-9Q77,42,75.81,38.79Zm-17,40.26c.51,1.47,1,3,1.54,4.43l-.8-1.64a.33.33,0,0,0-.58,0C59,80.92,58.89,80,58.85,79.05Zm.2,3.33c.4,1.42.79,2.84,1.18,4.25L60,86.12c-.14-.28-.46-.18-.58,0C59.26,84.9,59.15,83.64,59.05,82.38Zm.82,7.82.08-.52a.34.34,0,0,0-.19-.37c-.12-.92-.23-1.85-.33-2.77l1.7,3.37Zm1.92-.47c-.39-1.43-.79-2.86-1.19-4.29l1.67,3.4c.16.34.74.11.61-.25l-2.21-6.35a50.65,50.65,0,0,0,4,5.93c.2.26.68,0,.56-.33l-1.72-4.35a50.75,50.75,0,0,0,3,4.43A25.66,25.66,0,0,1,61.79,89.73Z"/></svg>