<svg id="Example_3" data-name="Example #3" xmlns="http://www.w3.org/2000/svg" xmlns:xlink="http://www.w3.org/1999/xlink" viewBox="0 0 100 100"><defs><style>.cls-1{fill:url(#linear-gradient);}.cls-2{fill:url(#linear-gradient-2);}.cls-3{fill:url(#linear-gradient-3);}</style><linearGradient id="linear-gradient" x1="14.81" y1="50" x2="85.19" y2="50" gradientUnits="userSpaceOnUse"><stop offset="0.15" stop-color="#ec008c"/><stop offset="0.5" stop-color="#ed1651"/><stop offset="0.85" stop-color="#f58220"/></linearGradient><linearGradient id="linear-gradient-2" x1="39.83" y1="62.35" x2="49.7" y2="62.35" xlink:href="#linear-gradient"/><linearGradient id="linear-gradient-3" x1="33.72" y1="81.06" x2="47.63" y2="81.06" xlink:href="#linear-gradient"/></defs><path class="cls-1" d="M83.64,25.06a15.66,15.66,0,0,0-6.18-6.93C72.48,15,66.71,14.47,61,14.69a.26.26,0,0,0-.27-.12c-3.56.33-7.13.48-10.7.49s-7.14-.16-10.7-.49a.26.26,0,0,0-.27.12c-5.74-.22-11.51.31-16.49,3.44a15.66,15.66,0,0,0-6.18,6.93c-1.64,3.84-1.56,8.12-1.54,12.22q0,14.13.11,28.27c0,4-.55,8.75,1.12,12.56a11.36,11.36,0,0,0,6.35,5.75c4.36,1.76,9.37,1.57,14,1.55,1.47,0,2.94,0,4.41-.08a.26.26,0,0,0,.26.1q4.24-.37,8.49-.42c.15,0,.3,0,.45,0s.3,0,.45,0q4.24,0,8.49.42a.26.26,0,0,0,.26-.1c1.47,0,2.94.08,4.41.08,4.62,0,9.63.21,14-1.55A11.36,11.36,0,0,0,84,78.11c1.67-3.81,1.1-8.51,1.12-12.56q.06-14.13.11-28.27C85.2,33.18,85.28,28.9,83.64,25.06ZM20.86,20.21c5.37-4.57,12.36-5.13,19.16-4.77a.49.49,0,0,0,0-.12l1.29.09s0,0,0,.06l3.54,11.07c-.43-1-.85-2-1.27-3q-.89-2.39-2-4.69c-.17-.35-.79-.1-.64.27l1.95,4.64a58.75,58.75,0,0,1,2.3,7.7l-6-13c-.17-.36-.75-.11-.64.27Q40.44,24.89,42.26,31l-6.6-12.68a.35.35,0,0,0-.64.27l4.77,13.91Q36,24.86,32.15,17.18c-.18-.35-.78-.11-.64.26L35.8,29.26,31.05,18.85c-.17-.35-.77-.1-.64.27q2.46,7.24,4.93,14.48Q31.67,26,28,18.32c-.18-.37-.72-.11-.64.26q1.2,5.31,2.92,10.45l-4.34-9.3c-.17-.37-.74-.11-.64.27,1.1,4.2,2.4,8.35,3.88,12.42L24.11,21.9c-.17-.35-.77-.1-.64.27l5.58,15.19q-3.27-6.8-6.52-13.6c-.17-.35-.77-.1-.64.27q1.84,5,3.67,10l-5.23-11c-.16-.36-.76-.11-.63.27l4.2,12.41L18.63,25.12c-.18-.36-.74-.11-.64.27a123.74,123.74,0,0,0,4.54,14.22A31.81,31.81,0,0,1,19.44,35c-.9-2.12-1.79-4.24-2.69-6.35-.15-.37-.75-.11-.63.27q.25.86.57,1.71L16.41,30a.33.33,0,0,0-.57,0A15.22,15.22,0,0,1,20.86,20.21Zm13.77,29c-.81-2-1.58-3.95-2.29-6a.35.35,0,0,0-.47-.21l-5.28-14.4,6.16,12.78a.37.37,0,0,0-.48.42C32.93,44.35,33.74,46.8,34.63,49.22Zm4,6.35c.16.35.79.1.64-.27a77,77,0,0,1-3.2-9.2L38,50.88a.35.35,0,0,0,.67-.18l-1.52-7.42,1.61,4.08a19,19,0,0,0,.09,4.55c.7,4.94,4.3,9.78,9.66,9.88a10.23,10.23,0,0,0,3.88-.71.29.29,0,0,0,0,.24,15.41,15.41,0,0,1,1.63,4.52,9.44,9.44,0,0,1-2-1.67A6.71,6.71,0,0,0,50.58,62a.35.35,0,0,0-.55.42,10.51,10.51,0,0,0,1.45,2.11,5.3,5.3,0,0,1,.3,1L49,62.35c-.3-.34-.79.16-.5.49,1.17,1.35,2.35,2.69,3.52,4a.35.35,0,0,0,.59-.25,6.15,6.15,0,0,0-.12-1.07,10.32,10.32,0,0,0,1.71,1.17,19.67,19.67,0,0,1-4.48.51,18.66,18.66,0,0,1-15.25-7.68,19.87,19.87,0,0,1-3.61-10.11,40.12,40.12,0,0,0,5.43,11.14.35.35,0,0,0,.6-.35c-.94-1.69-1.78-3.42-2.56-5.18l4,6.59a.35.35,0,0,0,.6-.35,91.2,91.2,0,0,1-4.15-9.9A126.8,126.8,0,0,0,40.54,63c.22.39.79,0,.6-.36a161.81,161.81,0,0,1-6.79-16.35Q36.5,50.94,38.66,55.57ZM34.49,45a.34.34,0,0,0,.54-.17c.29,1.14.61,2.27.95,3.39C35.48,47.1,35,46,34.49,45Zm5.06,2.46-.12-.29a11.2,11.2,0,0,1,2.65-6.36.31.31,0,0,0,.46,0,10.24,10.24,0,0,1,15.1.78c4,4.84,3.14,11.78-1.22,16.08A11.15,11.15,0,0,1,48,61.06,9.26,9.26,0,0,1,40.87,56a15.64,15.64,0,0,1-1.49-8.19A.28.28,0,0,0,39.55,47.42ZM54.24,61.11A18.92,18.92,0,0,1,55.41,64c-.8-1-1.61-2.08-2.42-3.11l-.05,0a12.59,12.59,0,0,0,2.25-1.29.13.13,0,0,0,0,.06,14.32,14.32,0,0,0,.65,1.3,13.24,13.24,0,0,1,.84,2.75c-.61-1-1.23-2-1.85-2.92A.35.35,0,0,0,54.24,61.11Zm7.33,1.81c-.3-.67-.61-1.34-.91-2a13,13,0,0,0,1.75,1.55c-.27.24-.54.48-.82.7A.46.46,0,0,0,61.57,62.92Zm5-4.45a20.35,20.35,0,0,0,2.29-15l8.58-.1-.09,23c0,3.47.42,8-3.3,9.83l-.39.17-.06-.08a.35.35,0,0,0-.64.26l0,.07c-2.85.91-6.3.46-9.16.44l-23.42-.21-12-.1c-1.79,0-4.05.19-5.25-1.42s-.77-4.23-.76-6.07l.06-26.06,8.26.23c-2.16,9,2.37,19.09,11,22.84C50.65,70.17,61.54,67,66.56,58.47Zm.18-24.21,1.71,6a27.55,27.55,0,0,1-2.9-6Zm-1.26-.7a72.28,72.28,0,0,1,.29-9.07h.06q5.24-.06,10.47-.42l-.63,9.46Zm3.58,8.74c.22.29.76.14.64-.27l-.77-2.66a33.09,33.09,0,0,0,2,3.19c.18.26.67.2.65-.18a20,20,0,0,0-.24-2.2q.5.78,1.05,1.53c.19.24.69.21.65-.18a20.83,20.83,0,0,0-.34-2.39c.48.85,1,1.68,1.52,2.49.18.26.7.2.65-.17-.07-.69-.17-1.36-.28-2a19.53,19.53,0,0,0,1.08,1.71A.35.35,0,0,0,76.3,41c0-.55,0-1.1,0-1.65a18.3,18.3,0,0,0,2,3.52.35.35,0,0,0,.64-.27l-.69-3.87a38.36,38.36,0,0,0,2.46,5,.35.35,0,0,0,.64-.27c-.79-3-1.58-6-2.36-9,.89,2.3,1.79,4.61,2.68,6.92,0,0,0,0,0,.07a49.26,49.26,0,0,0,.55,7L81,45.14a.35.35,0,0,0-.67.19l1.94,9.24c-.78-2.09-1.55-4.19-2.33-6.28a.35.35,0,0,0-.67.19l2.82,12.77-2.81-6.94c-.17-.41-.8-.26-.68.18Q80,59.56,81.34,64.63a36.5,36.5,0,0,0-2.92-4.91.35.35,0,0,0-.36-.15c0-.51,0-1,0-1.53l.06-15.27a.35.35,0,0,0-.68-.11l-8.66.09a.29.29,0,0,0-.28.17.29.29,0,0,0-.13,0l-1-3.2A28.87,28.87,0,0,0,69.06,42.3Zm6.47,33.78a17.9,17.9,0,0,1,.82,4.39L74,76.87A6.79,6.79,0,0,0,75.52,76,.49.49,0,0,0,75.53,76.08ZM64.07,82.53a11.74,11.74,0,0,1-2.8-4.8h.81l.91,0a.27.27,0,0,0,0,.18C63.34,79.47,63.71,81,64.07,82.53Zm-7.79-4.84h1.43v0a16.7,16.7,0,0,1,.94,3.71Zm.46,5a24,24,0,0,1-3.43-5.08l2.18,0a.09.09,0,0,1,0,0A22.26,22.26,0,0,1,56.74,82.74Zm1.72-5h2l.78,4.61A20,20,0,0,1,58.46,77.71Zm-27.15-34,.28.59a.31.31,0,0,0,.34.16,91.4,91.4,0,0,0,4,12q-1.59-2.61-3.17-5.22c-.27-.75-.54-1.5-.78-2.26a.36.36,0,0,0-.65-.06.36.36,0,0,0-.55,0A19.41,19.41,0,0,1,31.31,43.69ZM15.54,42.11c0-.44,0-.89,0-1.34A87.1,87.1,0,0,1,19.65,51l-2.8-5.66a.35.35,0,0,0-.64.26L19.83,55.7a39.22,39.22,0,0,1-3-6.7c-.15-.42-.82-.24-.67.18L19.86,60a30,30,0,0,1-3.24-6.95.35.35,0,0,0-.67.19,82.8,82.8,0,0,0,2.94,9.12l-2.7-4.47a.38.38,0,0,0-.59,0Zm2.7,23-2-3.73a.37.37,0,0,0-.63,0V58.3Zm-2.61.3c.54,2,1.16,3.88,1.84,5.78l-1.21-2.35a.36.36,0,0,0-.64,0c0-.54,0-1.07,0-1.58Zm0-1.23c0-.83,0-1.67,0-2.5l2.52,6.95L16,64.29A.32.32,0,0,0,15.62,64.15Zm0,4.93,2.88,7.83-2.42-4.37a.32.32,0,0,0-.45-.12C15.59,71.3,15.6,70.18,15.62,69.08ZM52.43,84.36v0c-.66,0-1.33,0-2,0h-.86c-.67,0-1.34,0-2,0v0c-2.17.06-4.34.18-6.51.38l-.08,0a84.85,84.85,0,0,1-13.17-.34c-3.86-.43-8-1.78-10.33-5.15a12,12,0,0,1-1.8-6l4.41,8c.19.34.78.11.64-.27q-1.26-3.4-2.51-6.82l2.9,5.62a.32.32,0,0,0,.54,0l1.94,3.32a.35.35,0,0,0,.65-.18,7.85,7.85,0,0,0,0-.84,10.78,10.78,0,0,0,1.09,1.27c.2.2.63.07.59-.24s-.09-.78-.15-1.17a12.57,12.57,0,0,0,1,1.39c.22.25.57,0,.6-.24a9.93,9.93,0,0,0,0-1.89,13.55,13.55,0,0,0,2.12,2.38.35.35,0,0,0,.58-.34c-.15-.75-.31-1.5-.47-2.25a22.51,22.51,0,0,0,1.64,2.51.34.34,0,0,0,.63-.26l-.32-1.5A16.54,16.54,0,0,0,33,83.9c.24.31.64,0,.58-.33-.1-.58-.21-1.16-.32-1.73.3.72.61,1.44.92,2.16.17.41.77,0,.6-.36-.72-1.68-1.43-3.36-2.15-5-.16-.39-.71-.09-.64.27l.62,3.31a15.64,15.64,0,0,1-1.79-4,.35.35,0,0,0-.67.19c.24,1.1.47,2.2.71,3.3a22.52,22.52,0,0,1-1.81-3.44.35.35,0,0,0-.67.19l.81,3.86a12.43,12.43,0,0,1-2.33-3.44,7.82,7.82,0,0,0-.4-1,.35.35,0,0,0-.63.27c.12.32.25.64.39,1a8.67,8.67,0,0,1,.53,3,11.66,11.66,0,0,1-1.86-3.71c-.15-.42-.81-.25-.68.18a20,20,0,0,1,.88,3.44,9.69,9.69,0,0,1-1.06-1.58,7.75,7.75,0,0,0-.87-2,.35.35,0,0,0-.64.26,11.64,11.64,0,0,0,.84,2,5,5,0,0,1,.15,1c-.7-1.22-1.41-2.43-2.12-3.65a.33.33,0,0,0-.42-.14,80.33,80.33,0,0,1-3.73-9.43l3.14,6.47a.35.35,0,0,0,.64-.27L17.91,66q1.21,2.28,2.44,4.56c.18.34.78.11.63-.27Q19.33,66,17.66,61.69q1.52,2.49,3,5c.24.39.79,0,.61-.36a79.1,79.1,0,0,1-2.94-7.52,30.57,30.57,0,0,0,2.36,3.64c.22.29.78.14.64-.26l-2.09-6.09c.53.94,1.09,1.85,1.7,2.74.21.31.78.13.64-.27-.9-2.53-1.81-5.07-2.71-7.61q1,2.11,2.08,4.21c.18.36.74.11.64-.27q-.74-2.6-1.63-5.15c.12.22.23.45.34.68a.35.35,0,0,0,.64-.27c-1-2.9-1.95-5.8-2.92-8.69.57,1.12,1.14,2.24,1.72,3.36a.35.35,0,0,0,.64-.27c-.41-1.13-.81-2.27-1.21-3.41.5,1,1,1.91,1.51,2.86.21.4.81,0,.6-.35l-3.72-7a.35.35,0,0,0-.64.27c.35,1,.7,2,1,3L16.5,37a.35.35,0,0,0-.63.27c.93,2.76,1.85,5.52,2.78,8.29-.88-1.78-1.76-3.57-2.65-5.35a.31.31,0,0,0-.49-.09,63.14,63.14,0,0,1,.28-9.73s0,0,0,.05l5.58,11c.21.41.78.05.61-.35-.31-.72-.61-1.44-.92-2.17a32.16,32.16,0,0,0,2.28,2.81c.22.25.71,0,.58-.34a120.91,120.91,0,0,1-4.35-12.69l6,12.12a.35.35,0,0,0,.64-.27q-2-5.9-4-11.77l5.88,12.35a.35.35,0,0,0,.64-.27L25.05,30.63q2.89,6,5.8,12.11l-8.59-.24a.35.35,0,0,0-.57.26L21.63,69.6c0,2.61-.45,6.22,2.53,7.4a12.79,12.79,0,0,0,4.53.45l6.88.06,17,.15a.3.3,0,0,0,0,.13,20.13,20.13,0,0,1,.91,5.54,30.14,30.14,0,0,1-3.91-5.39c-.22-.4-.8,0-.6.35a10.76,10.76,0,0,1,1.1,3.92,11.38,11.38,0,0,1-2.73-4.28c-.15-.42-.83-.24-.67.19a12.23,12.23,0,0,0,3.56,5.2.36.36,0,0,0,.6-.25,13.16,13.16,0,0,0-.27-2.29,30,30,0,0,0,3,3.63Zm32-42.25-.1,25.17c0,3.93.49,8.56-1.84,12S76.05,84,72.19,84.42A84.85,84.85,0,0,1,59,84.76l-.08,0c-1.6-.15-3.19-.24-4.79-.31a.27.27,0,0,0,.06-.17A20.54,20.54,0,0,0,53.85,80,24.53,24.53,0,0,0,57,84a.35.35,0,0,0,.59-.25A23.47,23.47,0,0,0,56.94,80l1.89,3c.18.27.67.18.65-.18a18.6,18.6,0,0,0-.26-2.26,19.88,19.88,0,0,0,2.38,3.13c.25.28.63,0,.58-.34-.17-1-.33-2-.5-2.94a12.46,12.46,0,0,0,2.75,3.37.36.36,0,0,0,.59-.34l-.57-2.41a16.34,16.34,0,0,0,2,2.68.35.35,0,0,0,.6-.24A16.57,16.57,0,0,0,66.74,81l1.51,2.56a.35.35,0,0,0,.64-.27L68.39,81c.55.94,1.09,1.88,1.63,2.82a.35.35,0,0,0,.6-.35L67.9,78.69a.35.35,0,0,0-.64.27l.51,2.38-1.76-3c-.2-.33-.78-.12-.64.27a15,15,0,0,1,.87,3.84,16.13,16.13,0,0,1-2.58-4.69c3,.11,6.62.33,9.46-.58.41,1.58.81,3.16,1.22,4.75a9.6,9.6,0,0,1-2.1-3.74.35.35,0,0,0-.67.19A14.25,14.25,0,0,1,72.28,82c-.72-1.23-1.43-2.47-2.14-3.7a.35.35,0,0,0-.6.35l2.81,4.88a.35.35,0,0,0,.65-.18,14.84,14.84,0,0,0-.1-2.12,10.6,10.6,0,0,0,1.84,2.08.36.36,0,0,0,.59-.34L74.15,78.4c.76,1.16,1.52,2.32,2.29,3.47a.35.35,0,0,0,.65-.17,19,19,0,0,0-.25-3.13,22.42,22.42,0,0,0,1.91,2.67c.2.25.59,0,.59-.25a15.36,15.36,0,0,0-.14-2.64,19.39,19.39,0,0,0,1.35,2,.36.36,0,0,0,.6-.25,33,33,0,0,0-.58-3.86c.18.33.36.66.55,1s.59.23.64-.08a4.23,4.23,0,0,0-.19-2.2c-.14-.42-.81-.24-.67.19a3.22,3.22,0,0,1,.19.6,34.22,34.22,0,0,1-2-4.48c-.16-.4-.83-.24-.67.19a29.46,29.46,0,0,1,1.94,7.41,16.4,16.4,0,0,1-1.75-3.28c-.14-.42-.28-.84-.45-1.25s-.81-.26-.67.18.28.81.43,1.21a16.06,16.06,0,0,1,.77,4.3,21.53,21.53,0,0,1-2.47-4.16.29.29,0,0,0-.27-.17,6.57,6.57,0,0,0,1.92-3.84A39.11,39.11,0,0,0,78,65.68l0-4.83q1.62,5.2,3.26,10.41c-.82-1.83-1.57-3.7-2.23-5.61-.15-.42-.82-.24-.67.18a69.37,69.37,0,0,0,4.33,10,.35.35,0,0,0,.64-.27q-2.08-6.66-4.18-13.32a36.44,36.44,0,0,1,4,9.09.35.35,0,0,0,.67-.19q-1.52-5.53-3-11.08,1.08,2.64,2.14,5.28a.35.35,0,0,0,.68-.18q-1.32-6-2.63-11.9,1.11,3,2.2,5.94a.35.35,0,0,0,.68-.19c-.68-3.22-1.35-6.44-2-9.66l1,2.68a.35.35,0,0,0,.67-.19,47.94,47.94,0,0,1-1.07-7.13l.39,1.53a.35.35,0,0,0,.68-.18c-.38-1.48-.76-3-1.13-4.42a.35.35,0,0,0,0-.25Q81.19,36.58,80,31.77l2.48,7a.35.35,0,0,0,.68-.18L79.9,26.08a27.68,27.68,0,0,1,2.86,8.42c.07.45.73.25.67-.18-.3-2.2-.72-4.37-1.21-6.52a17.51,17.51,0,0,1,1,4.16c0,.44.75.45.7,0a18.16,18.16,0,0,0-2.56-7.6.35.35,0,0,0-.64.27c.3,1.05.56,2.11.81,3.18a28.8,28.8,0,0,0-2.26-4.24.35.35,0,0,0-.64.27l1.92,7.43c-.84-2.33-1.67-4.67-2.51-7a.35.35,0,0,0-.67.18L80.28,35.8c-1-2.43-1.89-4.87-2.84-7.3a.35.35,0,0,0-.67.19q1.58,6,3.14,12a37.21,37.21,0,0,1-2.5-6.6.35.35,0,0,0-.67.18L77.94,41a18,18,0,0,1-2.21-6c-.09-.45-.74-.25-.67.18a23,23,0,0,1,.55,4.65,17.59,17.59,0,0,1-2.2-5,.35.35,0,0,0-.67.18,32.35,32.35,0,0,1,1.21,5,32.07,32.07,0,0,1-2.58-5.18h0l0-.08c-.16-.36-.78-.1-.64.27a.3.3,0,0,0,0,.08,21.29,21.29,0,0,1,1.43,5.16,20.5,20.5,0,0,1-1.46-2.53,18.84,18.84,0,0,0-1.24-3,.35.35,0,0,0-.64.27A23.36,23.36,0,0,0,70.08,38,18.72,18.72,0,0,1,70.73,41a30.19,30.19,0,0,1-3.24-6.75l8.2,0a.37.37,0,0,0,.65-.2L77,24c.24-.19.19-.66-.19-.63-3.65.26-7.32.41-11,.45a.32.32,0,0,0-.33.31.38.38,0,0,0-.43.33,74.62,74.62,0,0,0-.29,9,.3.3,0,0,0-.13.37q1.41,4.32,2.83,8.64a21.73,21.73,0,0,1-3.11-6.6.35.35,0,0,0-.67.18,22.72,22.72,0,0,0,4.5,8.52.3.3,0,0,0,.19.1,19.72,19.72,0,0,1-3.25,14.77A17.26,17.26,0,0,1,62.93,62a29.7,29.7,0,0,0-1.08-3.09,22.38,22.38,0,0,0,1.72,1.8c.24.22.7,0,.59-.34-.41-1.24-.83-2.48-1.24-3.72a19.32,19.32,0,0,0,1.42,1.85.35.35,0,0,0,.59-.25,24.88,24.88,0,0,0-1.23-5.09l1.68,2.49c.17.25.69.2.65-.18A23.93,23.93,0,0,0,65.09,51a19.93,19.93,0,0,0,1.5,1.55c.24.22.71,0,.58-.34-1-2.66-2-5.31-2.92-8L67,49.32c.22.4.82,0,.61-.35l-5.06-9.31c-.18-.34-.77-.11-.63.27q2,5.48,4,11a19.74,19.74,0,0,1-1.62-2A23.31,23.31,0,0,0,62.27,45c-.2-.31-.79-.12-.63.27l0,.08h0a19.91,19.91,0,0,0,2,3.85A23.08,23.08,0,0,1,65.12,54L62,49.38a.35.35,0,0,0-.6.35A23.62,23.62,0,0,1,64,57a17.4,17.4,0,0,1-2.36-4.16c-.16-.41-.82-.25-.68.18l2,6.14a20.52,20.52,0,0,1-3.11-4.26.35.35,0,0,0-.6.36A31.61,31.61,0,0,1,62,61.18a11.85,11.85,0,0,1-3.11-4.36c-.18-.41-.77,0-.6.36l1.77,4a13.07,13.07,0,0,1-1.68-3c-.17-.42-.84-.24-.68.18a13.61,13.61,0,0,0,3.37,5,.38.38,0,0,0,.18.09,18.59,18.59,0,0,1-6.31,3.1s0-.07,0-.11a16.82,16.82,0,0,0-.69-2.84L56,65.86c.23.29.65,0,.58-.34s-.21-.86-.34-1.28c.24.38.48.76.73,1.14s.67.19.65-.17a14.22,14.22,0,0,0-.35-2.2c.29.35.6.68.92,1a.35.35,0,0,0,.58-.34l-.51-1.6a.37.37,0,0,0,.27-.52c-.44-.92-.88-1.83-1.31-2.74-.17-.36-.76-.11-.64.26.34,1.06.67,2.13,1,3.19a13.55,13.55,0,0,1-1.13-1.7q-.28-.66-.63-1.29a.45.45,0,0,0-.09-.1,14.32,14.32,0,0,0,4.52-6.26,12.26,12.26,0,0,0-3.91-13.63,10.93,10.93,0,0,0-12.16-.67.38.38,0,0,0-.33,0C41,39.94,39.54,42.86,39,46q-1.3-3.31-2.62-6.63a.35.35,0,0,0-.67.18c.52,2.52,1,5,1.55,7.55L34.93,41.3a.35.35,0,0,0-.68.19c.2.93.42,1.85.65,2.78a139.56,139.56,0,0,1-7.79-20.38q4.14,8.84,8.27,17.68c.2.41.79,0,.61-.35a104.88,104.88,0,0,1-7.18-19.6l8.43,17.56c.17.35.77.1.64-.27q-2.28-6.7-4.57-13.42,2.74,6,5.48,12c.17.36.78.11.64-.26L34.27,23l7.27,14.62c.17.35.76.1.64-.27q-2.51-7.26-5-14.53l6.12,11.76a.35.35,0,0,0,.64-.27l-3.3-11.18q2.63,5.69,5.24,11.36c.17.39.7.1.64-.26-.24-1.32-.51-2.62-.83-3.92L47.26,34c.16.4.81.26.67-.18l-4.5-14.08Q47,27,50.52,34.17a.35.35,0,0,0,.64-.27l-3-9A85.39,85.39,0,0,0,54.9,36.45c.21.3.79.12.64-.27q-2.16-5.53-4.3-11.08l7.82,15.31c.18.35.77.11.64-.26Q57.43,34,55.18,27.82L62,42.41c.2.41.79.05.6-.35a113.08,113.08,0,0,1-7.41-20.4l8.7,18.43c.17.35.8.09.64-.27A145,145,0,0,1,58.8,23.41l4.11,9.13c.16.37.74.11.64-.27l-2.4-8.59,1.92,4.7c.14.33.72.33.69-.1-.06-.76-.15-1.52-.25-2.28a.31.31,0,0,0,.44-.22,11.17,11.17,0,0,0,.15-2.69l.3.65a.35.35,0,0,0,.64-.08,8.76,8.76,0,0,0,.26-2.07,4.53,4.53,0,0,0,.82.74c.27.2.56-.13.51-.39l-.37-2.16,1.17,2.67c.16.38.7.09.63-.27-.16-.86-.32-1.72-.49-2.58a16,16,0,0,0,1.56,2.32.35.35,0,0,0,.59-.24l-.21-2.16A8.69,8.69,0,0,0,71,21.36a.36.36,0,0,0,.59-.16,4.23,4.23,0,0,0,.32-1.75l1.6,2.09a.35.35,0,0,0,.64-.27c-.08-.56-.17-1.13-.25-1.7l2.24,3.1c.19.26.67.2.65-.17l0-1.12a.39.39,0,0,0,.39-.53l-.48-1.1c-.15-.32-.66-.15-.65.18,0,.48,0,1,0,1.45L73.61,18a.35.35,0,0,0-.63.27c.08.59.17,1.19.26,1.78l-2.16-2.82c-.27-.35-.87,0-.6.35a3.28,3.28,0,0,1,.59,2.84,7.26,7.26,0,0,1-1.83-3.63c-.08-.38-.72-.31-.68.09.11,1.18.23,2.35.34,3.53a14.74,14.74,0,0,1-2-4.1.35.35,0,0,0-.67.18c.18.92.35,1.83.52,2.75l-1.06-2.44c-.16-.39-.69-.09-.63.27.22,1.32.45,2.64.67,4A3.64,3.64,0,0,1,65.16,20a10.53,10.53,0,0,0-.26-1c-.11-.36-.73-.32-.69.09,0,0,0,.06,0,.09h0v0a5.77,5.77,0,0,0,.26,1.07,7.17,7.17,0,0,1,.06,2.17L63,18.93c-.21-.4-.79-.05-.61.35A10,10,0,0,1,63.43,24c-.3-.92-.61-1.84-.91-2.76-.31-1.11-.67-2.21-1.09-3.31-.16-.41-.82-.24-.68.19l1.11,3.36a35.56,35.56,0,0,1,.93,4.36Q61.17,21.92,59.56,18c-.17-.41-.8-.26-.68.18L61.63,28l-4-8.91c-.17-.37-.73-.11-.64.26q1.56,6.15,3.64,12.12L54.36,18.24c-.18-.37-.72-.1-.64.27A115.53,115.53,0,0,0,57,30.08l-4.59-9.8c-.17-.36-.78-.1-.64.27L57.05,35q-4.15-8.13-8.3-16.25c-.18-.35-.78-.11-.64.27L53.72,33.4A84.07,84.07,0,0,1,45.22,16c-.14-.42-.81-.24-.67.19q2.18,6.52,4.34,13.06-3.41-6.9-6.79-13.81c2.12.15,4.25.26,6.38.29h3c2.82,0,5.63-.18,8.45-.43a.49.49,0,0,0,0,.12c6.8-.36,13.79.2,19.16,4.77C85.55,25.68,84.5,34.52,84.46,42.11Z"/><path class="cls-2" d="M49.62,66.14a12.72,12.72,0,0,1-1.9-2.9,7.47,7.47,0,0,0-.44-1c-.19-.34-.79-.11-.64.27a.3.3,0,0,0,0,.08h0s0,0,0,.07c.11.28.22.54.35.81a5.1,5.1,0,0,1,.26,1.4l-2-2.92a.35.35,0,0,0-.6.35,13.71,13.71,0,0,1,1.15,2.65c-.48-.6-.93-1.23-1.36-1.87A8.87,8.87,0,0,0,43,60.66c-.26-.31-.73.09-.55.43.43.8.91,1.56,1.41,2.31a6.82,6.82,0,0,1,.31,1,36.24,36.24,0,0,1-3.7-6.27c-.19-.41-.79-.06-.61.35A36.75,36.75,0,0,0,44.48,66a.36.36,0,0,0,.6-.25c0-.25,0-.5-.09-.74.43.55.87,1.1,1.34,1.62.25.28.65,0,.59-.34s-.2-.82-.32-1.22l.73,1A.35.35,0,0,0,48,65.9a6.28,6.28,0,0,0,0-.75,14.18,14.18,0,0,0,1.1,1.48C49.42,67,49.91,66.48,49.62,66.14Z"/><path class="cls-3" d="M47.58,83a15.22,15.22,0,0,1-2-4.7c-.09-.38-.73-.31-.69.09.08.89.16,1.78.25,2.67a22.25,22.25,0,0,1-1-3c-.09-.37-.73-.31-.68.09l.5,3.86a12.31,12.31,0,0,1-1.45-3.71c-.1-.45-.73-.24-.67.19l.6,4.44a11.69,11.69,0,0,1-2.25-4.29c-.16-.41-.8-.25-.68.19a11.78,11.78,0,0,1,.76,4A21.93,21.93,0,0,1,38.79,80a13.22,13.22,0,0,0-.71-1.76.35.35,0,0,0-.64.27c.21.6.45,1.18.71,1.76a11.2,11.2,0,0,1,.5,2.64A24.56,24.56,0,0,1,36.22,78a.35.35,0,0,0-.68.19l.9,4.27a16,16,0,0,1-2-4.53.35.35,0,0,0-.67.19,17,17,0,0,0,3.13,6.13c.23.3.64,0,.58-.34l-.54-2.59a24.77,24.77,0,0,0,1.81,3,.35.35,0,0,0,.65-.17,11.81,11.81,0,0,0,0-1.58c.3.5.61,1,.94,1.47a.35.35,0,0,0,.65-.18,12,12,0,0,0,0-1.9,12.54,12.54,0,0,0,1.77,2.24c.27.27.62,0,.58-.34-.1-.76-.21-1.53-.31-2.29a13.35,13.35,0,0,0,1.23,2c.18.23.7.21.65-.18l-.25-1.95c.25.59.52,1.17.82,1.74A.35.35,0,0,0,46,83c-.05-.57-.1-1.15-.16-1.72A17.13,17.13,0,0,0,47,83.31C47.21,83.69,47.82,83.34,47.58,83Z"/></svg>