<svg id="Example_3" data-name="Example #3" xmlns="http://www.w3.org/2000/svg" xmlns:xlink="http://www.w3.org/1999/xlink" viewBox="0 0 100 100"><defs><style>.cls-1{fill:url(#linear-gradient);}.cls-2{fill:url(#linear-gradient-2);}.cls-3{fill:url(#linear-gradient-3);}</style><linearGradient id="linear-gradient" x1="16.84" y1="61.01" x2="31.28" y2="61.01" gradientUnits="userSpaceOnUse"><stop offset="0.01" stop-color="aqua"/><stop offset="0.48" stop-color="#2b9fda"/><stop offset="1" stop-color="#009245"/></linearGradient><linearGradient id="linear-gradient-2" x1="38.97" y1="59.96" x2="84.57" y2="59.96" xlink:href="#linear-gradient"/><linearGradient id="linear-gradient-3" x1="15.43" y1="23.27" x2="32.01" y2="23.27" xlink:href="#linear-gradient"/></defs><path class="cls-1" d="M31.08,37.32a.29.29,0,0,0-.25-.13L17.74,37a.35.35,0,0,0-.32.47.33.33,0,0,0-.25.33l-.33,46.58a.35.35,0,0,0,.69.06h0q6,.47,12,.56a.31.31,0,0,0,.28-.15.35.35,0,0,0,.47-.31l.93-46.93A.28.28,0,0,0,31.08,37.32Zm-13.23.38,4.53.07a.36.36,0,0,0-.25.52A19.2,19.2,0,0,0,24,40.91a31.79,31.79,0,0,1,2.65,5l-6.76-6.42c-.28-.26-.78.09-.55.43l6.38,9.42a36.32,36.32,0,0,1-5-4.54c-.44-.53-.9-1.06-1.37-1.56-.32-.34-.78.15-.5.49.42.52.87,1,1.32,1.5a31.4,31.4,0,0,1,4.9,8.12,42.33,42.33,0,0,1-4.95-6.85.35.35,0,0,0-.6.35l5,9.72-5.12-6.38c-.28-.35-.77.15-.49.49a65.85,65.85,0,0,1,8.25,13,22.17,22.17,0,0,1-5.26-5L19.71,55a.35.35,0,0,0-.61.35,23.46,23.46,0,0,0,2.3,3.68l2.86,4.58-4.8-5.74c-.26-.3-.76.09-.55.42l7.65,12.11a27.74,27.74,0,0,1-4.81-4.69q-1.59-2.43-3.17-4.88a.35.35,0,0,0-.61.35,28.43,28.43,0,0,0,3.22,4.95L25,72.07l-7-7.74a.3.3,0,0,0-.33-.08l.18-26.45S17.85,37.73,17.85,37.7Zm5.71,41.23a51.15,51.15,0,0,0-4.88-6.14.35.35,0,0,0-.54.43A46.84,46.84,0,0,0,23,79.37c.71,1,1.38,2.11,2,3.2A37.43,37.43,0,0,1,18.5,76c-.27-.35-.87,0-.61.35C19,77.86,20.06,79.42,21.14,81L17.81,78a.3.3,0,0,0-.22-.08l.06-8.63Q21.12,74.66,24.57,80C24.23,79.66,23.9,79.29,23.56,78.93Zm-6-.06,1.85,2.47-1.55-1.26a.37.37,0,0,0-.31-.08C17.57,79.63,17.58,79.25,17.58,78.87Zm2.57,4.67a10.5,10.5,0,0,0-.5-1.12l1.51,1.23c.27.23.8-.08.54-.42l-1.83-2.46c1,.88,2,1.76,3,2.63.28.25.78-.07.55-.42l-1.62-2.31A38.34,38.34,0,0,0,26,84.2l0,0q-3-.1-6-.3A.31.31,0,0,0,20.15,83.54ZM18,68.67a.31.31,0,0,0-.39-.06l0-3.53q3.75,5.7,7.51,11.39Zm-.49,15.09c0-1,0-2,0-3a9.25,9.25,0,0,1,.82,1,.36.36,0,0,0-.2.59c.46.52.92,1,1.37,1.57l0,0c-.67-.05-1.35-.09-2-.15Zm12.1.56h0c-1.11,0-2.22,0-3.34-.08a.38.38,0,0,0,.19-.51q-.59-1.08-1.2-2.13c.31.29.61.6.94.89s.77-.08.54-.43l-6.36-9.81,7.28,8c.27.29.77-.09.55-.42Q24.38,74,20.54,68.16l6.9,7.6a.35.35,0,0,0,.54-.42c-1.34-2.08-2.69-4.15-4-6.23a28.5,28.5,0,0,0,3.69,2.94c.29.2.66-.19.48-.48l-5.82-9.2L27,68c.25.31.75-.09.54-.42-1.14-1.84-2.29-3.67-3.44-5.51A23.54,23.54,0,0,0,27.9,64.9a.35.35,0,0,0,.48-.48,64.32,64.32,0,0,0-3.1-5.94l1,1.24c.25.32.72-.09.54-.42l-3.93-7.58a43.84,43.84,0,0,0,3,3.43c.23.24.7,0,.58-.34a32.27,32.27,0,0,0-3.23-6.69A38,38,0,0,0,27,51.05a.35.35,0,0,0,.48-.47l-5.7-8.43,5.6,5.31c.23.22.71,0,.58-.34A33.47,33.47,0,0,0,26,42.86a19,19,0,0,0,2.32,1.71c.3.19.63-.18.47-.48L27.67,42l1.22,1.44c.29.34.78-.15.5-.49L26,39c-.27-.31-.73.09-.55.43l2,3.74a16.81,16.81,0,0,1-2.94-2.71c-.57-.86-1.17-1.7-1.83-2.52h0l-.05-.07a.29.29,0,0,0-.15-.1l8,.12Z"/><path class="cls-2" d="M84.38,66.73c-.07-5.38.16-10.9-.74-16.23-1.38-8.15-7.2-16.57-16.47-15.21-5.22.77-9.38,4.2-12.79,8a24.72,24.72,0,0,0-.68-5.8.35.35,0,0,0-.2-.63l-13.6-.21a.33.33,0,0,0-.32.44.32.32,0,0,0-.4.33q.87,23.19-.21,46.4a.31.31,0,0,0,.25.33.32.32,0,0,0,.32.43,95.87,95.87,0,0,1,14.48,0,.27.27,0,0,0,.32-.25.26.26,0,0,0,.07-.22c-.59-5.81-1.16-11.67-.65-17.51a35.34,35.34,0,0,1,1.87-8.93c1-2.86,2.52-6.13,5.56-7.29A5.57,5.57,0,0,1,63.81,50a.36.36,0,0,0,.28.05C69.05,51,69,61.15,69.19,65a161.26,161.26,0,0,1,0,19,.32.32,0,0,0,.44.31.28.28,0,0,0,.13,0l14.47.41a.33.33,0,0,0,.34-.38.41.41,0,0,0,0-.16Q84.48,75.48,84.38,66.73ZM40.76,65,51.35,79.46A64.38,64.38,0,0,1,40.89,67.87c-.26-.36-.84,0-.6.35a107.45,107.45,0,0,0,7.18,10.37,92.47,92.47,0,0,1-6.27-7.28c-.25-.32-.73.09-.55.43a63.13,63.13,0,0,0,4.74,7.32,46.13,46.13,0,0,1-3.87-4.71c-.26-.36-.86,0-.6.35L45.3,81a22.72,22.72,0,0,1-4-4.89.35.35,0,0,0-.6.36q1.22,2,2.42,4.09l-2.09-1.69c-.29-.24-.76,0-.55.42l1.34,2.37-1.22-.74c-.32-.19-.62.18-.48.48s.35.75.53,1.13L39.78,82h0q.47-10.8.51-21.61l8.19,12.17-7.14-8C41.05,64.27,40.53,64.66,40.76,65Zm-1.1,18.91a.43.43,0,0,0,0,0c0-.36,0-.71,0-1.07l1.59,1c.32.2.61-.17.47-.47s-.35-.76-.53-1.14l1.38.83a.35.35,0,0,0,.47-.48L42,80.53l2.18,1.76c.29.23.77-.06.55-.43L44.1,80.8a23.43,23.43,0,0,0,2.76,2.39c.28.21.68-.2.48-.48L45.73,80.4a44.17,44.17,0,0,0,3.24,3,.35.35,0,0,0,.49-.49,62,62,0,0,1-5.68-7.37,94.69,94.69,0,0,0,8,8.26A96.42,96.42,0,0,0,39.66,83.89Zm14,0-1,0a.34.34,0,0,0-.1-.26,104.93,104.93,0,0,1-7.44-9.28,64.47,64.47,0,0,0,7.92,7.48.38.38,0,0,0,.41,0Zm4.07-31.77C54.82,55.72,53.7,61,53.18,65.43a76.11,76.11,0,0,0,.23,15.68L45.49,70.27l5.82,6.51c.27.29.78-.09.55-.42Q48.26,71,44.64,65.63a68.39,68.39,0,0,0,6,5.8.35.35,0,0,0,.55-.43,81,81,0,0,0-5.93-9.73l4.47,4.57c.28.28.77-.09.55-.42q-3.06-4.77-6.13-9.52l6.57,7.38c.26.3.75-.08.54-.42q-2.84-4.61-5.68-9.21a87.38,87.38,0,0,0,7,7.62c.28.27.77-.08.55-.42q-3.94-6.09-7.88-12.18a90.85,90.85,0,0,0,7.54,7.79c.28.26.76-.07.54-.42q-2.91-4.63-5.84-9.26c2.36,2.89,4.86,5.68,7.5,8.33.27.27.77-.09.55-.42l-5.25-7.95a67.51,67.51,0,0,0,5.94,5.9.35.35,0,0,0,.55-.43,69.45,69.45,0,0,0-4.7-7.77c1.06,1.28,2.08,2.6,3,4a.35.35,0,0,0,.6-.35L52,41.35a.29.29,0,0,0,0-.41l-1.73-2.58a.35.35,0,0,0-.61.35l3,5.24a52.82,52.82,0,0,0-4.88-5.16.35.35,0,0,0-.49.49,68.74,68.74,0,0,1,8,11.51A66,66,0,0,1,44.91,38.54c-.25-.37-.85,0-.6.36l8.55,13A112.87,112.87,0,0,1,43.24,40c-.25-.36-.84,0-.6.35L51.27,54a92.57,92.57,0,0,1-9.79-11.23c-.26-.35-.85,0-.6.36q4.95,7.63,9.89,15.27a85.72,85.72,0,0,1-9.22-11.31c-.25-.36-.84,0-.6.35q3.79,6.18,7.61,12.34l-6.9-7.76a.35.35,0,0,0-.55.42l6.7,10.41-5.89-6c-.32-.33-.77.15-.49.49a81.73,81.73,0,0,1,8.24,12.3,66.42,66.42,0,0,1-9.1-10.07.34.34,0,0,0-.31-.14q0-11-.38-22a.24.24,0,0,0,0-.08h0l13.1.2a24.24,24.24,0,0,1,.68,6.68c0,.41.55.44.67.11l.09-.07a37.93,37.93,0,0,1,2.93-3v0a.36.36,0,0,0,0,.09h0L60.21,48a21.31,21.31,0,0,1-2.29-2.9A16.43,16.43,0,0,0,56.66,43a.35.35,0,0,0-.6.35,23.84,23.84,0,0,0,1.26,2.13,15.07,15.07,0,0,1,1,2.79A13.21,13.21,0,0,1,56,45.13a.35.35,0,0,0-.6.35,13.5,13.5,0,0,0,3.35,4,.35.35,0,0,0,.58-.34c-.1-.54-.24-1.07-.39-1.59A22.51,22.51,0,0,0,61,49.72a.21.21,0,0,0,.1.06A7.71,7.71,0,0,0,57.76,52.15Zm3.74-2.5a.37.37,0,0,0,0-.36l-1.21-2.86a21.34,21.34,0,0,0,2.8,3A6.32,6.32,0,0,0,61.5,49.65Zm7.74,7.63a11.22,11.22,0,0,0-2-5.81,5.32,5.32,0,0,0-2.94-1.92c-.47-1-.93-2-1.39-3a30.13,30.13,0,0,0,5,5.3c.25.2.7,0,.58-.34a34.73,34.73,0,0,0-1.62-4q3.16,4.23,6.34,8.47c.26.35.83.05.6-.35L67.6,44.76,74,53.57A.31.31,0,0,0,74,54c2.51,4.2,4.8,8.53,6.89,12.95a64,64,0,0,1-8.77-10.77c-.24-.38-.84,0-.6.35q5,8,9.32,16.42a130,130,0,0,1-9.39-12,.35.35,0,0,0-.6.35q3.11,6,6.73,11.62l-5.07-6.22c-.25-.31-.76.09-.54.42l9,13.51a50,50,0,0,1-9.35-11.14c-.24-.38-.84,0-.6.35l7.39,11.51a30.85,30.85,0,0,1-7.18-7.59c-.25-.37-.85,0-.6.36l3.9,6L70.64,76.1a.33.33,0,0,0-.51,0c0-3.38,0-6.76-.19-10.13C69.79,63.1,69.59,60.18,69.24,57.28ZM78,52.76Q79.66,57,81.3,61.24c-.85-.78-1.67-1.6-2.45-2.44l-9.48-17Zm-8,26.8c.35.7.71,1.4,1.06,2.11l-.56-.55a.35.35,0,0,0-.58.17C70,80.71,70,80.14,70.06,79.56Zm.39-.72a.31.31,0,0,0-.37-.06c0-.74,0-1.48,0-2.22l2.71,4.56Zm-.58,4.84c0-.75.07-1.5.1-2.24a.33.33,0,0,0,.1.17l2.06,2a.35.35,0,0,0,.55-.42c-.41-.82-.83-1.64-1.24-2.47l2.76,2.64a.35.35,0,0,0,.55-.42L72.2,78.68,76.46,83c.28.28.77-.09.55-.42L74.6,78.91a32.34,32.34,0,0,0,4.87,4,.35.35,0,0,0,.48-.48l-3.32-5.17a49.91,49.91,0,0,0,5.73,5.43c.29.23.79-.07.55-.42q-3.19-4.83-6.4-9.64l5.58,6.84c.25.31.78-.1.55-.42A150.29,150.29,0,0,1,74.08,65.7c2.54,3.38,5.22,6.63,8.07,9.76.28.3.72-.09.55-.43-2.07-4.2-4.31-8.33-6.66-12.38a65.71,65.71,0,0,0,5.73,6.07.35.35,0,0,0,.55-.42c-1.64-3.59-3.43-7.1-5.34-10.55.22.26.44.54.67.79L78.74,60a.35.35,0,0,0,.44.13c.88.9,1.78,1.78,2.73,2.61.24.21.72,0,.59-.33-.77-2-1.53-4-2.3-6L81.64,59c.22.39.83,0,.6-.36l-1.09-1.91.71.9c.25.32.74-.09.55-.42L73.23,41.41l8.21,10.44c.21.27.72,0,.58-.33-.82-2-1.72-3.93-2.68-5.85l2.35,3.5c.25.38.85,0,.6-.35l-6.82-10.2c-.25-.37-.84,0-.61.36a93.08,93.08,0,0,1,5.41,10.27L70.67,37c-.25-.31-.74.09-.55.43l9.2,15.81-.51-.65-.26-.45a.35.35,0,0,0-.21-.15L67.2,37.89c-.25-.32-.74.09-.55.43L76,55.05Q70.1,47,64.22,39c-.25-.36-.83-.05-.6.35l6.63,11.41-6.11-8.17c-.6-.88-1.24-1.74-1.92-2.57-.25-.3-.79.11-.55.43l2,2.61a34.85,34.85,0,0,1,3.81,7.41A30.14,30.14,0,0,1,60,40c-.19-.41-.78-.05-.6.35,1.22,2.68,2.43,5.35,3.65,8a20.51,20.51,0,0,1-5-7.28l0-.1a.29.29,0,0,0-.2-.16c3.46-3.08,7.63-5.39,12.42-5,5.65.49,9.77,5.22,11.59,10.28,2.07,5.77,1.76,12.14,1.83,18.17q.1,9.87.22,19.74Z"/><path class="cls-3" d="M29.88,17.69a8.47,8.47,0,0,0-11.95-.46A8.5,8.5,0,0,0,17.69,29,8.32,8.32,0,0,0,29.88,17.69ZM29,28.76a7.65,7.65,0,0,1-10.59-.06,7.15,7.15,0,0,1-2.18-4.43,49.31,49.31,0,0,0,5.38,5.24c.24.2.72,0,.58-.34-.22-.57-.47-1.12-.74-1.67L24,30.35c.27.29.75-.09.55-.43l-1.95-3.24a30,30,0,0,0,3.36,3c.31.24.6-.2.48-.48A45.62,45.62,0,0,0,24,24.52c1.22,1.25,2.47,2.46,3.78,3.62.23.21.71,0,.58-.34a30.6,30.6,0,0,0-1.62-3.48c.75.72,1.53,1.42,2.34,2.09.29.23.78-.07.55-.43l-3.53-5.49,3.47,3.8a.35.35,0,0,0,.55-.42l-2.75-4.54,2.71,2.26c.35.29.84-.2.5-.49l-4.34-3.63c-.29-.24-.76.07-.55.43l2,3.27L23.8,17c-.26-.29-.76.09-.55.43q2.23,3.47,4.45,6.93c-1-.89-1.88-1.84-2.76-2.82a28.55,28.55,0,0,0-2.53-3.1c-.26-.29-.78.09-.55.42l.06.07h0C22.7,20,23.54,21,24.41,21.93a28.79,28.79,0,0,1,2.64,4.61,70.09,70.09,0,0,1-7.19-7.73c-.29-.35-.77.15-.49.49a44.22,44.22,0,0,1,5.82,8.85,28.29,28.29,0,0,1-5.25-5.94L18.6,20a.35.35,0,0,0-.6.35c.41.77.86,1.51,1.33,2.23l2.89,4.8-2.77-3a18.64,18.64,0,0,0-2.34-2.54.35.35,0,0,0-.49.5l2.3,2.49a18.2,18.2,0,0,1,2,3.19,49,49,0,0,1-3.76-3.73.34.34,0,0,0-.13-.42l-.66-.43a.39.39,0,0,0-.2-.05,8.09,8.09,0,0,1,2.3-5.63,7.77,7.77,0,0,1,10.8.26A7.66,7.66,0,0,1,29,28.76Z"/></svg>