<svg id="Example_3" data-name="Example #3" xmlns="http://www.w3.org/2000/svg" xmlns:xlink="http://www.w3.org/1999/xlink" viewBox="0 0 100 100"><defs><style>.cls-1{fill:url(#linear-gradient);}.cls-2{fill:url(#linear-gradient-2);}</style><linearGradient id="linear-gradient" x1="10.95" y1="50" x2="89.05" y2="50" gradientUnits="userSpaceOnUse"><stop offset="0.15" stop-color="#ec008c"/><stop offset="0.5" stop-color="#ed1651"/><stop offset="0.85" stop-color="#f58220"/></linearGradient><linearGradient id="linear-gradient-2" x1="52.6" y1="74.02" x2="86.54" y2="74.02" xlink:href="#linear-gradient"/></defs><path class="cls-1" d="M87.21,70.67c-5-4.06-7.15-11.81-14.13-13.2a6.9,6.9,0,0,0-6.94,2.78c-2.39,3-4.11,6.25-7.73,8-4.45,2.11-8.17-.37-11.34-3.44a125.09,125.09,0,0,1-8.57-9.26c-2.69-3.21-6-7-5.75-11.44.25-4,3.71-5.78,6.51-8,2.57-2,4.14-4.59,3.61-8A12.49,12.49,0,0,0,39.79,22l0,0,0,0-.57-.64,0,.09-4-3.75s0,0,0,0l-.36-.28-.1-.09-.06,0c-2.38-2-4.28-5-7.46-5-2.24-.05-4,1.62-5.51,3a60,60,0,0,0-5.7,5.69c-3.29,3.91-5.5,8.55-4.89,13.77.67,5.76,3.78,11.27,6.6,16.23C23.39,61,30.87,70.54,40,77.77c8.22,6.51,18.32,10.94,29,9.93a28.28,28.28,0,0,0,14.8-5.64C86.77,79.72,91.78,73.87,87.21,70.67ZM13,39.5a18.5,18.5,0,0,1-1-9c.21,2.14.41,4.27.62,6.4,0,.37.6.52.69.1l1.68-8.65c-.05,1-.1,2-.16,3a48.28,48.28,0,0,0-.35,6.7.32.32,0,0,0,.15.28c-.12,1-.23,2-.32,3,0,.39.63.49.69.09.37-2.76.74-5.53,1.12-8.29s1.06-5.28,1.75-7.89L16.12,39.92c-.18,1.39-.34,2.78-.48,4.18,0,.45.65.44.7,0,.16-1.37.32-2.74.47-4.11a141.64,141.64,0,0,1,3-16l-2,15.36c-.42,2.64-.76,5.28-1,7.94,0,.45.65.44.71,0q.5-3.92,1-7.83A137.22,137.22,0,0,1,22.63,21.4L20.11,37c-.6,3.35-1.15,6.71-1.63,10.09-.06.44.61.64.68.19l1.63-10.09q1.53-8.45,3.56-16.77a231.65,231.65,0,0,1-3.64,27.13c-.09.44.58.64.68.19l4.92-22.17q-.76,5.49-1.54,11A110.76,110.76,0,0,0,22.69,51.3c0,.38.64.48.69.09s.12-.81.17-1.22A36,36,0,0,0,24,57.11c.06.36.58.3.68,0a36.82,36.82,0,0,0,1-3.68v6.44c0,.38.63.49.69.09.38-2.77.76-5.55,1.15-8.32,0,3.12,0,6.25,0,9.37,0,.47.66.44.71,0l.48-4.51c.06,2.29.2,4.57.44,6.85a.36.36,0,0,0,.71,0l.33-2.59a54.84,54.84,0,0,0,.49,5.57h0s0,.06,0,.09c.06.43.64.26.69-.09l.54-4.05c0,2.37,0,4.74.11,7.11A99.88,99.88,0,0,1,20.33,54,76.11,76.11,0,0,1,13,39.5Zm2.44-6.77c0-.43,0-.87.07-1.3.16-1.27.36-2.54.62-3.79Zm10,15a.36.36,0,0,0,.24.4,34.78,34.78,0,0,1-1.14,7.18,35.56,35.56,0,0,1,0-8.12c0-.28-.23-.38-.44-.32l1.44-10.19a109.84,109.84,0,0,1,2.78-10.66c-.26,2.16-.42,4.32-.5,6.49Zm55,35.73a29.17,29.17,0,0,1-13.26,3.63c-9.83.38-19.06-3.85-26.64-9.85a76.38,76.38,0,0,1-8.12-7.47.35.35,0,0,0,.32-.33l.46-4.29a50,50,0,0,0,.68,5.68c.07.42.64.26.69-.1l1.2-9.2V72c0,.46.65.44.7,0,.28-2.31.55-4.61.83-6.92l.1,8.33c0,.38.63.5.69.09.25-1.75.51-3.5.76-5.26a35.77,35.77,0,0,0,.85,6c.07.32.62.35.68,0l1.17-7.38.57,8.48a.35.35,0,0,0,.7,0c.09-.8.18-1.59.26-2.39,0,1,0,2,0,3,0,.46.65.43.7,0l.66-5,.54,7.19a.35.35,0,0,0,.7,0l0-.66c.09.54.19,1.07.32,1.6a.35.35,0,0,0,.69-.09,33.16,33.16,0,0,1,1-7.7c.25,2.57.51,5.14.76,7.71a.35.35,0,0,0,.7,0c.15-1.2.29-2.4.43-3.6l.55,7.34a.35.35,0,0,0,.7,0l.36-4.63c.06.43.75.43.7,0-.13-1.31-.26-2.63-.38-3.94a.36.36,0,0,0-.71,0l-.31,4L50,71.81a.35.35,0,0,0-.7,0l-.48,4-.63-6.39a.35.35,0,0,0-.69-.09A34.15,34.15,0,0,0,46.14,76,26.69,26.69,0,0,1,46,73.12c.09-1.16.17-2.31.26-3.47,0-.39-.64-.49-.69-.09a.28.28,0,0,0,0,.09h0v0a29.6,29.6,0,0,0-.24,3.24l0,.5-.44-5.84a.35.35,0,0,0-.7,0l-.33,2.48.06-4.52c0-.46-.65-.44-.7,0q-.32,2.88-.62,5.78L42,63.75c0-.37-.62-.51-.69-.09-.45,2.83-.91,5.67-1.36,8.5a35.21,35.21,0,0,1-.28-9.94c0-.39-.63-.49-.69-.1-.33,2.28-.65,4.55-1,6.82,0-3-.08-6.11-.11-9.16a.36.36,0,0,0-.71,0l-.76,6.38v-10c0-.46-.65-.43-.7,0q-.8,6-1.58,12.07A49.35,49.35,0,0,1,34,57.79c.08-.82.17-1.65.26-2.47,0-.45-.65-.43-.71,0-.11.82-.19,1.63-.25,2.44L32.59,64c0-3.54.15-7.08.49-10.62,0-.45-.65-.43-.71,0-.44,3.37-.89,6.74-1.33,10.11a51.24,51.24,0,0,1,.09-10.06l.36-2.82c.05-.39-.62-.48-.69-.09-.14.92-.26,1.84-.35,2.76q-.45,3.41-.89,6.83a87.55,87.55,0,0,1,0-11.68c0-.46-.66-.44-.7,0-.22,2-.43,4-.65,6v-7.9c0-.38-.63-.5-.69-.09-.38,2.77-.77,5.54-1.15,8.32V47.25a.3.3,0,0,0-.14-.27q.93-5.58,2.16-11.1l.18-.43a.44.44,0,0,0,.1-.15l.14-.42a70.54,70.54,0,0,0,2.49-7L27.7,43a.35.35,0,0,0,.68.19,51.68,51.68,0,0,0,2.86-9.66l-.15,2.76c0,.4.58.47.69.09.37-1.38.75-2.75,1.13-4.13a33.55,33.55,0,0,0,0,4,.35.35,0,0,0,.69.09c.32-.95.62-1.91.89-2.87,0,1,0,1.89.09,2.84,0,.37.61.51.69.09.22-1.16.45-2.33.67-3.49,0,.4.06.81.11,1.21a.35.35,0,0,0,.69.09l1.62-5.5.06,3.59a.35.35,0,0,0,.69.09c.12-.43.24-.86.37-1.28l-.06,1.15c0,.45.69.45.71,0,.06-1.38.13-2.75.19-4.13a.35.35,0,0,0-.69-.09c-.18.63-.36,1.26-.55,1.89l-.05-3.54a.35.35,0,0,0-.69-.1l-1.74,5.91a22,22,0,0,1,.17-3.63l.52-2.73c.08-.44-.57-.63-.68-.19a23.64,23.64,0,0,0-.55,2.86c-.28,1.49-.57,3-.85,4.48,0-1.13.11-2.25.25-3.37.32-1.38.6-2.77.82-4.18.07-.43-.56-.63-.68-.18a34.66,34.66,0,0,0-.83,4.25c-.35,1.57-.76,3.12-1.22,4.65a31.83,31.83,0,0,1,.74-7l.88-3.22a.35.35,0,0,0-.68-.18A33.41,33.41,0,0,0,33.62,27L32,33l.36-6.39c.58-2.41,1.15-4.83,1.73-7.25a.35.35,0,0,0-.68-.18c-.15.43-.29.87-.44,1.31.06-.73.12-1.46.19-2.2,0-.41-.58-.45-.7-.09q-2.1,6.6-3.73,13.32c0-.25,0-.51,0-.76v-.1a73.36,73.36,0,0,1,1.79-13.57c.1-.44-.58-.63-.68-.19A80.44,80.44,0,0,0,28.37,25a.37.37,0,0,0-.59.15c-.48,1.49-.92,3-1.33,4.5q.89-6.36,1.78-12.7c.06-.44-.57-.64-.68-.19L23.5,35q1.26-9.16,1.81-18.4a.35.35,0,0,0-.69-.1q-.72,2.79-1.38,5.58l.83-5.16a.35.35,0,0,0-.67-.18C22,20.83,20.8,25,19.8,29.25c.45-3.51.91-7,1.36-10.53.05-.41-.59-.47-.69-.1-.85,3-1.59,5.95-2.24,9L19,21c0-.41-.58-.46-.69-.09-.41,1.29-.78,2.6-1.13,3.91.12-.86.24-1.73.35-2.59a.35.35,0,0,0-.67-.19c-.41,1.25-.77,2.5-1.08,3.76.05-.82.09-1.64.13-2.46a.35.35,0,0,0-.69-.1Q14.11,28.88,13,34.48l-.51-5.31a.38.38,0,0,0-.24-.3,16.65,16.65,0,0,1,2.11-4.73,34.89,34.89,0,0,1,5.31-6.2c1.85-1.78,4.2-4.63,6.85-5,2.38-.35,4.19,1.68,5.73,3.19A20.25,20.25,0,0,0,34.5,18l4.69,4.36c2,2.39,3.59,5.18,3,8.4-.63,3.38-3.83,5-6.3,6.94C33.6,39.5,32,41.68,32,44.66c0,3.51,2.07,6.5,4.16,9.15,2.54,3.19,5.26,6.25,8.1,9.17,2.39,2.46,5,5.44,8.36,6.46,3,.89,6-.18,8.36-2,2.71-2.09,4-5.09,6.33-7.48,3.65-3.77,8.91-1.19,11.85,2.11,2.53,2.85,4.27,6.3,7.16,8.81a.37.37,0,0,0,.15.18,4.1,4.1,0,0,1,.4.29l0,0h0c2.66,2.09.81,5.85-1.09,7.87A23.18,23.18,0,0,1,80.41,83.49ZM30,29.17q1-3.86,2.15-7.68c0,.43-.07.85-.12,1.28a.28.28,0,0,0-.18.22c-.2.9-.43,1.8-.67,2.69C30.78,26.84,30.39,28,30,29.17Z"/><path class="cls-2" d="M86.39,73.63a.35.35,0,0,0-.7,0l0,.24c-.16-.73-.31-1.45-.47-2.18a.36.36,0,0,0-.68,0l-.93,2.86a6.67,6.67,0,0,1-.38-2.15c0-.48.08-1,.13-1.45s-.63-.48-.7-.09a9.27,9.27,0,0,0-.12,1.46c-.15,1.69-.29,3.38-.44,5.07a21,21,0,0,1-1.45-8c0-.64.07-1.27.11-1.91,0-.46-.66-.44-.71,0-.06.64-.09,1.28-.1,1.92q-.24,4.36-.47,8.72a48.39,48.39,0,0,1-1.9-12.33.35.35,0,0,0-.7,0q0,6.92-.1,13.83A54.53,54.53,0,0,1,74.6,61.48c0-.45-.68-.45-.7,0q-.36,7.35-.2,14.71a119.14,119.14,0,0,1-1-13.87.35.35,0,0,0-.7,0l-.32,17.56A101.83,101.83,0,0,1,70.61,63.7a.36.36,0,0,0-.71,0l-.33,15.72a67.41,67.41,0,0,1-1.12-11.77l.22-6.23c0-.45-.67-.44-.71,0-.17,2.08-.23,4.15-.22,6.23q-.24,7.14-.5,14.28a83.15,83.15,0,0,1-1.41-14v-3.6a.35.35,0,0,0-.7,0c0,1.2,0,2.41,0,3.6q0,8.27,0,16.51A47.78,47.78,0,0,1,63,73V66.9a.35.35,0,0,0-.7,0,49.18,49.18,0,0,0,0,6.19v8.16a76,76,0,0,1-1.24-12,.36.36,0,0,0-.71,0q.06,6.51.1,13a41.64,41.64,0,0,1-1.08-5.17A57.82,57.82,0,0,0,59,70.7a.36.36,0,0,0-.71,0,41.43,41.43,0,0,0,.42,6.5c0,1.74,0,3.48-.2,5.22a42.74,42.74,0,0,1-.81-5.13,31.1,31.1,0,0,0-.17-5.62.35.35,0,0,0-.7,0A42.42,42.42,0,0,0,57,77.31a32.66,32.66,0,0,1-.51,3.94c-.4-3-.8-6.11-1.21-9.16a.35.35,0,0,0-.7,0l-.72,9.36a44.84,44.84,0,0,1-.46-8.82.36.36,0,0,0,.37-.43l-.27-1.34c-.09-.42-.66-.28-.69.09A45.67,45.67,0,0,0,53.6,84.3c.09.41.67.29.69-.09.23-2.92.46-5.83.68-8.75l1,7.8c0,.36.59.51.7.09.26-1,.47-2,.64-3.09a42.81,42.81,0,0,0,.94,4.33c.11.41.64.28.69-.09.15-1.3.26-2.6.33-3.89a39.16,39.16,0,0,0,1.18,4.2.35.35,0,0,0,.69-.09c0-2.11,0-4.22,0-6.32.31,2.14.7,4.26,1.19,6.38a.35.35,0,0,0,.69-.1V78.91a49.55,49.55,0,0,0,2.1,7.79.35.35,0,0,0,.69-.09l0-9.23c.33,2.55.77,5.09,1.34,7.6a.35.35,0,0,0,.69-.09c.12-3.31.23-6.62.35-9.93a69.27,69.27,0,0,0,1.33,7.68c.09.39.68.29.69-.1l.16-7.68c.29,3,.7,6,1.26,9,.07.4.68.29.69-.1L72.53,72Q73,77.1,73.92,82.11c.07.39.71.3.69-.09q-.26-5.1-.26-10.21a55.36,55.36,0,0,0,2.4,10.12.35.35,0,0,0,.69-.09l.06-9.16a49.83,49.83,0,0,0,1.85,7.48.35.35,0,0,0,.69-.09l.33-6A21.94,21.94,0,0,0,82,79c.16.34.63.13.66-.18.11-1.28.21-2.57.32-3.85.1.26.2.52.33.78a.35.35,0,0,0,.64-.09c.28-.84.55-1.69.83-2.53.21,1,.43,2,.64,2.94.09.42.65.27.69-.09l.06-.54c.2,0,.4-.08.37-.33Z"/></svg>