<svg id="Example_3" data-name="Example #3" xmlns="http://www.w3.org/2000/svg" xmlns:xlink="http://www.w3.org/1999/xlink" viewBox="0 0 100 100"><defs><style>.cls-1{fill:url(#linear-gradient);}</style><linearGradient id="linear-gradient" x1="12.48" y1="51.6" x2="87.52" y2="51.6" gradientUnits="userSpaceOnUse"><stop offset="0.01" stop-color="aqua"/><stop offset="0.48" stop-color="#2b9fda"/><stop offset="1" stop-color="#009245"/></linearGradient></defs><path class="cls-1" d="M87.17,27.65,81.53,28a28.13,28.13,0,0,0,2.89-7.07.35.35,0,0,0-.51-.39l-8.6,4.58,0,0a16.58,16.58,0,0,0-18.85-3A16.55,16.55,0,0,0,48,38.67a.36.36,0,0,0-.22-.11A39.25,39.25,0,0,1,17.53,18.9a.37.37,0,0,0-.46-.42.35.35,0,0,0-.3.51A24.26,24.26,0,0,0,21,44.28a27,27,0,0,1-6.72-1.73h0a.36.36,0,0,0-.6.33A23.59,23.59,0,0,0,25.58,58.77a8.56,8.56,0,0,1-6.18-.08c-.39-.15-.57.42-.26.63A16.34,16.34,0,0,0,33.77,69.9a23.87,23.87,0,0,1-20.86,6.58.37.37,0,0,0-.37.57.33.33,0,0,0,.09.16c9.29,8.9,24.24,8.93,35.79,5.15a45.05,45.05,0,0,0,27.6-25,43.78,43.78,0,0,0,3.34-20.9,35.14,35.14,0,0,0,8.11-8.26A.35.35,0,0,0,87.17,27.65ZM17.22,19.74A40,40,0,0,0,47.73,39.26a.29.29,0,0,0,.28-.13c0,.1,0,.2,0,.3.08.44.75.25.67-.19a16,16,0,0,1,5.45-14.79.22.22,0,0,0,0,.11Q60,41.3,65.74,58L53,32.44c-.18-.35-.78-.11-.64.27l9.7,24.9A243.13,243.13,0,0,1,51.44,34.24c-.16-.41-.81-.25-.68.19q2.94,9.82,6.69,19.37-3.86-8-7.7-16c-.17-.35-.78-.1-.64.27l9,23.35L48.92,42.63c-.17-.35-.79-.1-.64.26l9.53,23.69A138.21,138.21,0,0,1,50,49.08c-.92-2.79-1.85-5.58-2.77-8.38-.14-.42-.8-.24-.67.19q1.26,4.26,2.78,8.43,3.43,10.43,6.88,20.85A129.71,129.71,0,0,1,44.4,40.82a.35.35,0,0,0-.68.19,158.63,158.63,0,0,0,8.41,27.21A117.2,117.2,0,0,1,41.71,41.47c-.11-.44-.78-.25-.68.19a283.11,283.11,0,0,0,9.78,32.87A178.68,178.68,0,0,1,38.07,41c-.12-.44-.75-.25-.68.18a136.36,136.36,0,0,0,7.47,26.23,149.55,149.55,0,0,1-9.81-25.81l-.06-2,1.07,2.95c.16.42.83.24.68-.19l-1.83-5c-.12-.35-.7-.33-.68.09l0,1.28a.35.35,0,0,0-.66.21c.06.33.12.65.19,1a24,24,0,0,1-1.26-4.23c-.07-.38-.7-.29-.68.1.07,1.76.14,3.52.22,5.29-.11-.47-.24-.94-.34-1.41a.36.36,0,0,0-.48-.22,14.48,14.48,0,0,1-1-4.51c0-.45-.72-.46-.7,0l.15,3.9a36.19,36.19,0,0,1-2-5.74.35.35,0,0,0-.68.09l.27,5.06a.28.28,0,0,0-.21.31c.11,1,.24,2,.38,2.94l0,.72A104.4,104.4,0,0,1,24.36,30.5c-.09-.45-.73-.25-.67.19q.9,6.39,1.81,12.8A97.2,97.2,0,0,1,21.42,28.4a.35.35,0,0,0-.68.09,99.51,99.51,0,0,0,1.47,10q-2.25-7.44-4-15c-.1-.44-.74-.24-.67.19q.48,3.21,1,6.44c-.64-2.58-1.33-5.14-2.09-7.68l0-.08A22.78,22.78,0,0,1,17.22,19.74ZM47.55,78.6a17.64,17.64,0,0,1-2.18-4.12.35.35,0,0,0-.67.19c.36,1.43.72,2.85,1.09,4.28a50.15,50.15,0,0,1-4.61-9.84.35.35,0,0,0-.67.18L43.24,79.7a47.32,47.32,0,0,1-6-11c-.39-1.08-.77-2.17-1.15-3.26-.15-.41-.81-.24-.67.19.34,1.11.73,2.2,1.15,3.28.55,1.54,1.09,3.09,1.63,4.63a60.1,60.1,0,0,1-5-13.26c-.11-.44-.76-.25-.67.19l.22,1.08a123.28,123.28,0,0,1-4.11-16.83,121.49,121.49,0,0,0,8.66,22.11.35.35,0,0,0,.64-.27,133.78,133.78,0,0,1-5.18-20.14,115.8,115.8,0,0,0,11.58,27c.23.4.78,0,.6-.35a151.67,151.67,0,0,1-8.48-24.5,150.07,150.07,0,0,0,11.24,25.7c-.21-.1-.53,0-.5.3ZM25.4,37.83q1,3.53,2.2,7a.37.37,0,0,0,.38.24,123.55,123.55,0,0,0,3.57,15,77,77,0,0,1-4.79-8.61c-.64-2-1.35-3.89-2.11-5.81a96.34,96.34,0,0,1-2.16-9.45,96.78,96.78,0,0,0,3.45,10.45.35.35,0,0,0,.68-.19Zm5,1.21A14.27,14.27,0,0,0,31.22,41,134,134,0,0,0,35.74,62,121.87,121.87,0,0,1,28,39.66L27.82,36a35.1,35.1,0,0,0,2,4.66.35.35,0,0,0,.65-.17C30.41,40,30.39,39.51,30.38,39Zm2.3-.19a25.64,25.64,0,0,0,1.7,4,153.59,153.59,0,0,0,7.44,24.66,115.52,115.52,0,0,1-9.34-24.75.31.31,0,0,0,.35-.33Zm-.36,23.67a.38.38,0,0,0,.62,0q.53,2.56,1.07,5.13a34.05,34.05,0,0,1-2.69-6c-.1-.37-.22-.74-.34-1.11C31.42,61.18,31.86,61.85,32.32,62.52Zm-8,3a.37.37,0,0,0,.26-.43l-.39-1.43c.52,1,1,2,1.57,3A15.12,15.12,0,0,1,24.36,65.53Zm2.34,1.65a.35.35,0,0,0,0-.25l-.51-2.37a19.1,19.1,0,0,0,2.45,3.56A16.28,16.28,0,0,1,26.7,67.18Zm1-7.41a22.64,22.64,0,0,0,.86,2.72,18.74,18.74,0,0,1,.5,5,18.76,18.76,0,0,1-3.65-6.71.35.35,0,0,0-.67.19l.79,3.64-2.16-4a.35.35,0,0,0-.63.27l.72,2.65a13.26,13.26,0,0,1-1.38-2.8c-.15-.42-.82-.24-.67.18a13.71,13.71,0,0,0,2.05,3.83A15.72,15.72,0,0,1,20,59.64a9.11,9.11,0,0,0,6.13-.34.4.4,0,0,0,.17-.14l0,0c.41.19.76-.41.36-.61A22.84,22.84,0,0,1,14.5,43.36,27.71,27.71,0,0,0,21.4,45a.31.31,0,0,0,.24-.07l0,0c.32.32.81-.18.5-.5A23.51,23.51,0,0,1,16,24.15L17.61,34.3a37,37,0,0,1-1.13-5.84c-.05-.44-.75-.45-.7,0a38.3,38.3,0,0,0,2.5,10,.35.35,0,0,0,.67-.18l-1.56-9.74c1.08,4.14,2,8.31,2.75,12.52.08.44.74.25.67-.19l-1.48-10Q20.67,36,22.25,41a.33.33,0,0,0-.18.38,77.64,77.64,0,0,0,4.05,10.37c.51,1.58,1,3.17,1.42,4.78a35.59,35.59,0,0,1-6.22-11.22c-.14-.42-.81-.25-.67.18l2.61,8.15a38.39,38.39,0,0,1-3.93-8.1.35.35,0,0,0-.67.19l1.41,5.65-3.84-7.05c-.21-.39-.82,0-.6.35l5.14,9.44a.35.35,0,0,0,.64-.27l-.95-3.79A39.07,39.07,0,0,0,24,56c.22.3.77.14.64-.27l-1.36-4.23A37.13,37.13,0,0,0,28,58.18c.24.27.67,0,.59-.34-.22-.83-.44-1.66-.68-2.48q1.06,2,2.24,3.87a.32.32,0,0,0-.19.4c.19.74.42,1.46.66,2.18a32.08,32.08,0,0,1,.9,5.09,24.5,24.5,0,0,1-2.32-4.6,19.9,19.9,0,0,0-.86-2.72C28.21,59.18,27.58,59.32,27.7,59.77Zm2,8.71a.29.29,0,0,0,0-.09,20.3,20.3,0,0,0,0-3.31,24.85,24.85,0,0,0,2,3.3c.19.26.68.2.65-.17,0-.95-.16-1.89-.29-2.82a34.67,34.67,0,0,0,2.08,3.83A16,16,0,0,1,29.7,68.48Zm5.05,1.42a.35.35,0,0,0,.36-.4.37.37,0,0,0-.09-.45l-.34-1.61a61.43,61.43,0,0,0,4.88,10,.35.35,0,0,0,.34.16A15.22,15.22,0,0,1,40.35,80a25.26,25.26,0,0,1-2.91-4.43c-.38-1-.79-1.89-1.25-2.81-.17-.35-.77-.1-.63.27a24.9,24.9,0,0,0,1.24,2.79,45.32,45.32,0,0,1,1.63,4.72,21.36,21.36,0,0,1-4.08-8.13c-.11-.44-.76-.25-.67.18l1.59,7.25A19.45,19.45,0,0,1,32,73a.33.33,0,0,0-.52-.19A24,24,0,0,0,34.75,69.9Zm-5.39,5Q30.2,78,31,81a11.43,11.43,0,0,1-2.6-4.8l-.26-1.27a.31.31,0,0,0-.05-.1,24.35,24.35,0,0,0,3.35-2,.33.33,0,0,0-.13.35q.73,3.6,1.49,7.18A21,21,0,0,1,30,74.75.35.35,0,0,0,29.36,74.94Zm-3.09,1.87v0h0s0-.06,0-.09c-.17-.39-.69-.09-.63.27a7.43,7.43,0,0,0,.83,2.47,14.47,14.47,0,0,1,.28,1.6,10.26,10.26,0,0,1-2.66-3.82h0l0-.08c-.16-.36-.78-.1-.64.27l0,.08h0A10.84,10.84,0,0,1,24.32,81a6.49,6.49,0,0,1-1.55-3.26c-.06-.39-.73-.3-.68.09l.31,2.48a6.25,6.25,0,0,1-1-2.24.35.35,0,0,0-.67.19,4.33,4.33,0,0,1,.17,1.7,4.1,4.1,0,0,1-1.1-2.17c-.08-.4-.66-.28-.68.09,0,.6-.07,1.2-.1,1.79L17.34,77.5a24.83,24.83,0,0,0,10.15-2.36,10.44,10.44,0,0,0,.27,1.26c.33,1.59.67,3.17,1,4.75a6.54,6.54,0,0,1-1.71-2A15.2,15.2,0,0,0,26.27,76.81Zm-9.57.7a.29.29,0,0,0,0,.32l2.18,2.92a23.92,23.92,0,0,1-5.12-3.44A26,26,0,0,0,16.7,77.51ZM32.7,84a33.18,33.18,0,0,1-13.33-3,.34.34,0,0,0,.25-.32l.05-1.07a5.19,5.19,0,0,0,1.16,1.33.36.36,0,0,0,.59-.15c0-.18.06-.35.09-.52a7,7,0,0,0,1.13,1.4c.19.19.63.07.59-.25l-.1-.8a7.5,7.5,0,0,0,1.34,1.55.36.36,0,0,0,.6-.25,11.54,11.54,0,0,0-.17-1.77,11.29,11.29,0,0,0,2,2c.22.16.62.08.6-.25s-.07-.75-.12-1.12a7.74,7.74,0,0,0,1.73,1.47.35.35,0,0,0,.51-.4l-.45-2.16a12.36,12.36,0,0,0,2.29,2.73.35.35,0,0,0,.58-.34l-.81-3a22,22,0,0,0,2,2.93c.24.29.65,0,.58-.34-.3-1.47-.61-2.94-.91-4.42a20.69,20.69,0,0,0,2.78,4.16c.24.28.65,0,.58-.34-.29-1.35-.59-2.7-.88-4.06a22,22,0,0,0,3.55,5.11.36.36,0,0,0,.59-.34c-.25-1-.54-2-.85-2.91a26.4,26.4,0,0,0,1.88,2.37.35.35,0,0,0,.59-.24,16.43,16.43,0,0,0-.83-4.48,48.75,48.75,0,0,0,3.47,5c.22.29.66,0,.58-.34-.6-2.27-1.19-4.54-1.79-6.81a51.8,51.8,0,0,0,3.8,6.77.35.35,0,0,0,.63-.27l-.78-3.1A18.35,18.35,0,0,0,47.76,80a.35.35,0,0,0,.6-.24C48.23,78.4,48.1,77,48,75.63a4.38,4.38,0,0,1,.64,1.3c.14.43.81.25.68-.18A6.93,6.93,0,0,0,49,76a.36.36,0,0,0,.15-.48,135.65,135.65,0,0,1-9.26-25.89,180,180,0,0,0,12.9,30.26A46.15,46.15,0,0,1,32.7,84ZM79,35.85a.29.29,0,0,0-.32.27.37.37,0,0,0,0,.45A43.56,43.56,0,0,1,66.42,70.52a44.66,44.66,0,0,1-13,9.1Q48.63,67.17,45,54.33A117.89,117.89,0,0,0,54.62,74a.35.35,0,0,0,.6-.36,158,158,0,0,1-8-21.53A130.56,130.56,0,0,0,57.36,73.6c.2.33.77.11.64-.27Q55.6,66,53.19,58.72a136.4,136.4,0,0,0,6.74,13.12c.19.33.79.11.63-.27L52.49,51.5q4.26,8.69,8.5,17.36c.17.35.78.1.64-.27L52.9,45.93,63.76,68.54c.19.4.79,0,.6-.36A247.29,247.29,0,0,1,54,42.22q4.62,10.7,10.24,20.93c.19.33.79.1.64-.27l-9-23.25Q61.65,51.4,67.52,63.17c.17.35.76.1.63-.27Q62.82,47.45,57.48,32l12,27c.16.36.75.1.64-.27q-4.53-14.31-9-28.61Q66.34,41.58,71.56,53c.17.36.75.1.64-.27l-5.07-18.2q3.3,7.92,7.28,15.53a.35.35,0,0,0,.64-.27q-3.26-9.63-6.49-19.28L74.5,43.84c.17.38.72.1.64-.27l-3.09-14.2q2.2,6.42,4.42,12.83a.35.35,0,0,0,.67-.18c-.84-3-1.67-6-2.51-8.94.49,1,1,2.08,1.46,3.11.18.38.7.1.64-.27-.31-1.61-.62-3.22-.92-4.83.36.79.73,1.59,1.1,2.38.18.39.7.1.64-.27l0-.13c.2.2.64.12.61-.23l-.28-3.22.8,1.77a.35.35,0,0,0,.65-.18c0-.45-.1-.9-.14-1.35l.22.59a.35.35,0,0,0,.67-.18l-.16-1L81,31.19a.35.35,0,0,0,.61-.35l-2-3.56a.33.33,0,0,0-.6.06l-.1-.27c-.13-.34-.73-.33-.69.09l.21,1.94-.75-1.65a.35.35,0,0,0-.65.18l.18,2.06c-.18-.58-.36-1.16-.55-1.74a.35.35,0,0,0-.67.19c.15.86.3,1.71.46,2.57-.39-.83-.77-1.67-1.16-2.5-.17-.38-.71-.1-.64.27l.93,4.89-2.08-4.44c-.17-.36-.74-.11-.64.27l.38,1.35c-.8-2.33-1.6-4.67-2.41-7a.35.35,0,0,0-.67.18q1.81,8.37,3.64,16.72Q70,32,66.2,23.57c-.16-.36-.76-.1-.63.27q3.63,10.82,7.28,21.62a186.69,186.69,0,0,1-7.48-17.25c-.16-.41-.8-.25-.68.19q2.84,10.14,5.65,20.27-5.49-12-11-24c-.17-.36-.76-.1-.64.27l8.88,28.12Q61.21,38.68,54.82,24.3a.29.29,0,0,0-.27-.17,14.89,14.89,0,0,1,2.23-1.44,15.88,15.88,0,0,1,18.15,3,.33.33,0,0,0,.5,0,.42.42,0,0,0,.24,0l7.85-4.19a27.67,27.67,0,0,1-2.91,6.67.35.35,0,0,0,.4.51h0l5.4-.3A33.81,33.81,0,0,1,79,35.85Z"/></svg>